<svg width="149" height="47" viewBox="0 0 149 47" fill="none" xmlns="http://www.w3.org/2000/svg">
<path d="M9.036 36.432C6.588 36.432 4.62 35.748 3.132 34.38C1.668 32.988 0.936 31.02 0.936 28.476H5.544C5.568 29.652 5.844 30.588 6.372 31.284C6.9 31.98 7.752 32.328 8.928 32.328C10.032 32.328 10.836 32.004 11.34 31.356C11.844 30.684 12.096 29.808 12.096 28.728V10.8H16.704V28.728C16.704 31.2 16.008 33.108 14.616 34.452C13.248 35.772 11.388 36.432 9.036 36.432ZM26.5762 36.432C25.0402 36.432 23.7802 36.192 22.7962 35.712C21.8122 35.208 21.0802 34.548 20.6002 33.732C20.1202 32.916 19.8802 32.016 19.8802 31.032C19.8802 29.376 20.5282 28.032 21.8242 27C23.1202 25.968 25.0642 25.452 27.6562 25.452H32.1922V25.02C32.1922 23.796 31.8442 22.896 31.1482 22.32C30.4522 21.744 29.5882 21.456 28.5562 21.456C27.6202 21.456 26.8042 21.684 26.1082 22.14C25.4122 22.572 24.9802 23.22 24.8122 24.084H20.3122C20.4322 22.788 20.8642 21.66 21.6082 20.7C22.3762 19.74 23.3602 19.008 24.5602 18.504C25.7602 17.976 27.1042 17.712 28.5922 17.712C31.1362 17.712 33.1402 18.348 34.6042 19.62C36.0682 20.892 36.8002 22.692 36.8002 25.02V36H32.8762L32.4442 33.12C31.9162 34.08 31.1722 34.872 30.2122 35.496C29.2762 36.12 28.0642 36.432 26.5762 36.432ZM27.6202 32.832C28.9402 32.832 29.9602 32.4 30.6802 31.536C31.4242 30.672 31.8922 29.604 32.0842 28.332H28.1602C26.9362 28.332 26.0602 28.56 25.5322 29.016C25.0042 29.448 24.7402 29.988 24.7402 30.636C24.7402 31.332 25.0042 31.872 25.5322 32.256C26.0602 32.64 26.7562 32.832 27.6202 32.832ZM42.6015 15.372C41.7615 15.372 41.0655 15.12 40.5135 14.616C39.9855 14.112 39.7215 13.476 39.7215 12.708C39.7215 11.94 39.9855 11.316 40.5135 10.836C41.0655 10.332 41.7615 10.08 42.6015 10.08C43.4415 10.08 44.1255 10.332 44.6535 10.836C45.2055 11.316 45.4815 11.94 45.4815 12.708C45.4815 13.476 45.2055 14.112 44.6535 14.616C44.1255 15.12 43.4415 15.372 42.6015 15.372ZM40.2975 36V18.144H44.9055V36H40.2975ZM56.8432 36.432C55.1632 36.432 53.6632 36.024 52.3432 35.208C51.0232 34.392 49.9792 33.276 49.2112 31.86C48.4432 30.444 48.0592 28.836 48.0592 27.036C48.0592 25.236 48.4432 23.64 49.2112 22.248C49.9792 20.832 51.0232 19.728 52.3432 18.936C53.6632 18.12 55.1632 17.712 56.8432 17.712C58.1872 17.712 59.3632 17.964 60.3712 18.468C61.3792 18.972 62.1952 19.68 62.8192 20.592V10.08H67.4272V36H63.3232L62.8192 33.444C62.2432 34.236 61.4752 34.932 60.5152 35.532C59.5792 36.132 58.3552 36.432 56.8432 36.432ZM57.8152 32.4C59.3032 32.4 60.5152 31.908 61.4512 30.924C62.4112 29.916 62.8912 28.632 62.8912 27.072C62.8912 25.512 62.4112 24.24 61.4512 23.256C60.5152 22.248 59.3032 21.744 57.8152 21.744C56.3512 21.744 55.1392 22.236 54.1792 23.22C53.2192 24.204 52.7392 25.476 52.7392 27.036C52.7392 28.596 53.2192 29.88 54.1792 30.888C55.1392 31.896 56.3512 32.4 57.8152 32.4ZM79.7155 36.432C77.9155 36.432 76.3195 36.048 74.9275 35.28C73.5355 34.512 72.4435 33.432 71.6515 32.04C70.8595 30.648 70.4635 29.04 70.4635 27.216C70.4635 25.368 70.8475 23.724 71.6155 22.284C72.4075 20.844 73.4875 19.728 74.8555 18.936C76.2475 18.12 77.8795 17.712 79.7515 17.712C81.5035 17.712 83.0515 18.096 84.3955 18.864C85.7395 19.632 86.7835 20.688 87.5275 22.032C88.2955 23.352 88.6795 24.828 88.6795 26.46C88.6795 26.724 88.6675 27 88.6435 27.288C88.6435 27.576 88.6315 27.876 88.6075 28.188H75.0355C75.1315 29.58 75.6115 30.672 76.4755 31.464C77.3635 32.256 78.4315 32.652 79.6795 32.652C80.6155 32.652 81.3955 32.448 82.0195 32.04C82.6675 31.608 83.1475 31.056 83.4595 30.384H88.1395C87.8035 31.512 87.2395 32.544 86.4475 33.48C85.6795 34.392 84.7195 35.112 83.5675 35.64C82.4395 36.168 81.1555 36.432 79.7155 36.432ZM79.7515 21.456C78.6235 21.456 77.6275 21.78 76.7635 22.428C75.8995 23.052 75.3475 24.012 75.1075 25.308H83.9995C83.9275 24.132 83.4955 23.196 82.7035 22.5C81.9115 21.804 80.9275 21.456 79.7515 21.456ZM100.151 36.432C98.3512 36.432 96.7552 36.048 95.3632 35.28C93.9712 34.512 92.8792 33.432 92.0872 32.04C91.2952 30.648 90.8992 29.04 90.8992 27.216C90.8992 25.368 91.2832 23.724 92.0512 22.284C92.8432 20.844 93.9232 19.728 95.2912 18.936C96.6832 18.12 98.3152 17.712 100.187 17.712C101.939 17.712 103.487 18.096 104.831 18.864C106.175 19.632 107.219 20.688 107.963 22.032C108.731 23.352 109.115 24.828 109.115 26.46C109.115 26.724 109.103 27 109.079 27.288C109.079 27.576 109.067 27.876 109.043 28.188H95.4712C95.5672 29.58 96.0472 30.672 96.9112 31.464C97.7992 32.256 98.8672 32.652 100.115 32.652C101.051 32.652 101.831 32.448 102.455 32.04C103.103 31.608 103.583 31.056 103.895 30.384H108.575C108.239 31.512 107.675 32.544 106.883 33.48C106.115 34.392 105.155 35.112 104.003 35.64C102.875 36.168 101.591 36.432 100.151 36.432ZM100.187 21.456C99.0592 21.456 98.0632 21.78 97.1992 22.428C96.3352 23.052 95.7832 24.012 95.5432 25.308H104.435C104.363 24.132 103.931 23.196 103.139 22.5C102.347 21.804 101.363 21.456 100.187 21.456ZM111.911 43.92V18.144H116.015L116.519 20.7C117.095 19.908 117.851 19.212 118.787 18.612C119.747 18.012 120.983 17.712 122.495 17.712C124.175 17.712 125.675 18.12 126.995 18.936C128.315 19.752 129.359 20.868 130.127 22.284C130.895 23.7 131.279 25.308 131.279 27.108C131.279 28.908 130.895 30.516 130.127 31.932C129.359 33.324 128.315 34.428 126.995 35.244C125.675 36.036 124.175 36.432 122.495 36.432C121.151 36.432 119.975 36.18 118.967 35.676C117.959 35.172 117.143 34.464 116.519 33.552V43.92H111.911ZM121.523 32.4C122.987 32.4 124.199 31.908 125.159 30.924C126.119 29.94 126.599 28.668 126.599 27.108C126.599 25.548 126.119 24.264 125.159 23.256C124.199 22.248 122.987 21.744 121.523 21.744C120.035 21.744 118.811 22.248 117.851 23.256C116.915 24.24 116.447 25.512 116.447 27.072C116.447 28.632 116.915 29.916 117.851 30.924C118.811 31.908 120.035 32.4 121.523 32.4Z" fill="black"/>
<circle cx="144.5" cy="31.5" r="4.5" fill="#EA4638"/>
</svg>
