<svg width="122" height="122" viewBox="0 0 122 122" fill="none" xmlns="http://www.w3.org/2000/svg">
<g filter="url(#filter0_d_68_876)">
<circle cx="61" cy="61" r="50" fill="white"/>
</g>
<path d="M38.0771 75.5047L61.9334 34.188L64.0751 35.4234L40.2209 76.7422L38.0771 75.5047Z" fill="#E10098"/>
<path d="M37.5854 72.2047H85.298V74.6776H37.5854V72.2047Z" fill="#E10098"/>
<path d="M38.5312 73.5922L39.7667 71.4506L63.6313 85.2297L62.3937 87.3714L38.5312 73.5922ZM59.2625 37.6797L60.5 35.5402L84.3646 49.3193L83.1271 51.461L59.2625 37.6797Z" fill="#E10098"/>
<path d="M38.5376 49.313L62.4001 35.5338L63.6376 37.6755L39.773 51.4546L38.5376 49.313Z" fill="#E10098"/>
<path d="M58.8311 35.4255L60.9728 34.188L84.8269 75.5067L82.6873 76.7422L58.8311 35.4255ZM39.479 47.6713H41.9519V75.2297H39.479V47.6713Z" fill="#E10098"/>
<path d="M80.9502 47.6714H83.4231V75.2297H80.9502V47.6714Z" fill="#E10098"/>
<path d="M60.896 84.4546L81.6502 72.4713L82.7314 74.3421L61.9752 86.3255L60.896 84.4546Z" fill="#E10098"/>
<path d="M86.7001 76.0339C86.186 76.9271 85.4185 77.6478 84.4947 78.1047C83.5709 78.5615 82.5323 78.734 81.5104 78.6004C80.4885 78.4667 79.5292 78.0329 78.754 77.3538C77.9787 76.6747 77.4224 75.7809 77.1554 74.7854C76.8884 73.79 76.9227 72.7378 77.2539 71.7619C77.5852 70.786 78.1986 69.9303 79.0164 69.3031C79.8342 68.6759 80.8197 68.3055 81.8481 68.2386C82.8766 68.1718 83.9017 68.4116 84.7938 68.9276C85.9878 69.6183 86.859 70.7544 87.2164 72.0866C87.5737 73.4188 87.3881 74.8384 86.7001 76.0339M45.2 52.0756C44.686 52.9688 43.9185 53.6895 42.9947 54.1463C42.0709 54.6032 41.0323 54.7757 40.0104 54.642C38.9885 54.5084 38.0292 54.0745 37.254 53.3954C36.4787 52.7163 35.9224 51.8225 35.6554 50.8271C35.3884 49.8317 35.4227 48.7794 35.7539 47.8035C36.0852 46.8276 36.6986 45.9719 37.5164 45.3448C38.3342 44.7176 39.3197 44.3471 40.3481 44.2803C41.3766 44.2135 42.4017 44.4533 43.2938 44.9693C44.4878 45.66 45.359 46.796 45.7164 48.1283C46.0737 49.4605 45.888 50.8801 45.2 52.0756ZM36.2 76.0339C35.684 75.1418 35.4442 74.1166 35.5111 73.0882C35.5779 72.0598 35.9483 71.0743 36.5755 70.2565C37.2027 69.4387 38.0584 68.8253 39.0343 68.494C40.0102 68.1628 41.0624 68.1285 42.0579 68.3955C43.0533 68.6625 43.9471 69.2188 44.6262 69.9941C45.3053 70.7693 45.7391 71.7286 45.8728 72.7505C46.0064 73.7724 45.8339 74.811 45.3771 75.7348C44.9202 76.6586 44.1995 77.4261 43.3063 77.9401C42.1108 78.6281 40.6912 78.8138 39.359 78.4565C38.0268 78.0991 36.8907 77.2278 36.2 76.0339M77.7001 52.0756C77.184 51.1835 76.9442 50.1583 77.0111 49.1299C77.0779 48.1014 77.4483 47.116 78.0755 46.2981C78.7027 45.4803 79.5584 44.867 80.5343 44.5357C81.5102 44.2044 82.5624 44.1701 83.5579 44.4371C84.5533 44.7042 85.4471 45.2605 86.1262 46.0357C86.8053 46.811 87.2391 47.7702 87.3728 48.7921C87.5064 49.814 87.3339 50.8526 86.8771 51.7764C86.4202 52.7002 85.6996 53.4677 84.8063 53.9818C83.6108 54.6698 82.1912 54.8555 80.859 54.4981C79.5268 54.1407 78.3907 53.2695 77.7001 52.0756M61.4501 90.6172C60.4199 90.6172 59.413 90.3118 58.5565 89.7395C57.6999 89.1672 57.0324 88.3537 56.6382 87.402C56.244 86.4503 56.1408 85.4031 56.3418 84.3928C56.5428 83.3825 57.0388 82.4544 57.7672 81.726C58.4956 80.9976 59.4236 80.5016 60.434 80.3006C61.4443 80.0997 62.4915 80.2028 63.4432 80.597C64.3949 80.9912 65.2083 81.6588 65.7806 82.5153C66.3529 83.3718 66.6584 84.3788 66.6584 85.4089C66.6603 86.0934 66.5269 86.7715 66.2658 87.4043C66.0048 88.0371 65.6212 88.612 65.1372 89.096C64.6532 89.5801 64.0782 89.9636 63.4455 90.2247C62.8127 90.4857 62.1346 90.6192 61.4501 90.6172M61.4501 42.6818C60.4199 42.6818 59.413 42.3763 58.5565 41.804C57.6999 41.2317 57.0324 40.4183 56.6382 39.4666C56.244 38.5149 56.1408 37.4677 56.3418 36.4574C56.5428 35.4471 57.0388 34.519 57.7672 33.7906C58.4956 33.0622 59.4236 32.5662 60.434 32.3652C61.4443 32.1643 62.4915 32.2674 63.4432 32.6616C64.3949 33.0558 65.2083 33.7234 65.7806 34.5799C66.3529 35.4364 66.6584 36.4434 66.6584 37.4735C66.6603 38.158 66.5269 38.8361 66.2658 39.4689C66.0048 40.1017 65.6212 40.6766 65.1372 41.1606C64.6532 41.6446 64.0782 42.0282 63.4455 42.2893C62.8127 42.5503 62.1346 42.6837 61.4501 42.6818" fill="#E10098"/>
<defs>
<filter id="filter0_d_68_876" x="0" y="0" width="122" height="122" filterUnits="userSpaceOnUse" color-interpolation-filters="sRGB">
<feFlood flood-opacity="0" result="BackgroundImageFix"/>
<feColorMatrix in="SourceAlpha" type="matrix" values="0 0 0 0 0 0 0 0 0 0 0 0 0 0 0 0 0 0 127 0" result="hardAlpha"/>
<feMorphology radius="1" operator="dilate" in="SourceAlpha" result="effect1_dropShadow_68_876"/>
<feOffset/>
<feGaussianBlur stdDeviation="5"/>
<feComposite in2="hardAlpha" operator="out"/>
<feColorMatrix type="matrix" values="0 0 0 0 0 0 0 0 0 0 0 0 0 0 0 0 0 0 0.05 0"/>
<feBlend mode="normal" in2="BackgroundImageFix" result="effect1_dropShadow_68_876"/>
<feBlend mode="normal" in="SourceGraphic" in2="effect1_dropShadow_68_876" result="shape"/>
</filter>
</defs>
</svg>
