<svg width="122" height="122" viewBox="0 0 122 122" fill="none" xmlns="http://www.w3.org/2000/svg">
<g filter="url(#filter0_d_109_1474)">
<circle cx="61" cy="61" r="50" fill="white"/>
</g>
<g clip-path="url(#clip0_109_1474)">
<path fill-rule="evenodd" clip-rule="evenodd" d="M62.0204 92.3352L60.2914 91.7507C60.2914 91.7507 60.5026 83.0323 57.339 82.4067C55.2307 79.9868 57.6772 -20.2156 65.2685 82.0726C65.2685 82.0726 62.6534 83.3655 62.1895 85.577C61.6831 87.7464 62.0204 92.3352 62.0204 92.3352V92.3352Z" fill="white"/>
<path fill-rule="evenodd" clip-rule="evenodd" d="M62.0204 92.3352L60.2914 91.7507C60.2914 91.7507 60.5026 83.0323 57.339 82.4067C55.2307 79.9868 57.6772 -20.2156 65.2685 82.0726C65.2685 82.0726 62.6534 83.3655 62.1895 85.577C61.6831 87.7464 62.0204 92.3352 62.0204 92.3352V92.3352Z" fill="#A6A385"/>
<path fill-rule="evenodd" clip-rule="evenodd" d="M62.9487 83.9083C62.9487 83.9083 78.0901 74.063 74.5468 53.58C71.1309 38.6879 63.0753 33.8071 62.1896 31.9297C61.2197 30.5948 60.2915 28.259 60.2915 28.259L60.9245 69.6826C60.9245 69.7247 59.6169 82.3646 62.9491 83.9088" fill="white"/>
<path fill-rule="evenodd" clip-rule="evenodd" d="M62.9487 83.9083C62.9487 83.9083 78.0901 74.063 74.5468 53.58C71.1309 38.6879 63.0753 33.8071 62.1896 31.9297C61.2197 30.5948 60.2915 28.259 60.2915 28.259L60.9245 69.6826C60.9245 69.7247 59.6169 82.3646 62.9491 83.9088" fill="#499D4A"/>
<path fill-rule="evenodd" clip-rule="evenodd" d="M59.4061 84.4504C59.4061 84.4504 45.1924 74.8555 46.0361 57.9609C46.8373 41.0658 56.8751 32.7642 58.8152 31.2625C60.0807 29.9276 60.1227 29.4267 60.2073 28.0918C61.093 29.9692 60.9244 56.1671 61.0505 59.2537C61.4299 71.1428 60.3759 82.1982 59.4061 84.4504Z" fill="white"/>
<path fill-rule="evenodd" clip-rule="evenodd" d="M59.4061 84.4504C59.4061 84.4504 45.1924 74.8555 46.0361 57.9609C46.8373 41.0658 56.8751 32.7642 58.8152 31.2625C60.0807 29.9276 60.1227 29.4267 60.2073 28.0918C61.093 29.9692 60.9244 56.1671 61.0505 59.2537C61.4299 71.1428 60.3759 82.1982 59.4061 84.4504Z" fill="#58AA50"/>
</g>
<defs>
<filter id="filter0_d_109_1474" x="0" y="0" width="122" height="122" filterUnits="userSpaceOnUse" color-interpolation-filters="sRGB">
<feFlood flood-opacity="0" result="BackgroundImageFix"/>
<feColorMatrix in="SourceAlpha" type="matrix" values="0 0 0 0 0 0 0 0 0 0 0 0 0 0 0 0 0 0 127 0" result="hardAlpha"/>
<feMorphology radius="1" operator="dilate" in="SourceAlpha" result="effect1_dropShadow_109_1474"/>
<feOffset/>
<feGaussianBlur stdDeviation="5"/>
<feComposite in2="hardAlpha" operator="out"/>
<feColorMatrix type="matrix" values="0 0 0 0 0 0 0 0 0 0 0 0 0 0 0 0 0 0 0.05 0"/>
<feBlend mode="normal" in2="BackgroundImageFix" result="effect1_dropShadow_109_1474"/>
<feBlend mode="normal" in="SourceGraphic" in2="effect1_dropShadow_109_1474" result="shape"/>
</filter>
<clipPath id="clip0_109_1474">
<rect width="30" height="66" fill="white" transform="translate(46 28)"/>
</clipPath>
</defs>
</svg>
