<svg width="122" height="122" viewBox="0 0 122 122" fill="none" xmlns="http://www.w3.org/2000/svg">
<g filter="url(#filter0_d_68_832)">
<circle cx="61" cy="61" r="50" fill="white"/>
</g>
<g clip-path="url(#clip0_68_832)">
<path d="M61.5264 88.7914C60.7746 88.7914 60.0729 88.5868 59.4213 88.2287L52.7545 84.1871C51.752 83.6244 52.2532 83.4198 52.554 83.3174C53.9073 82.857 54.1579 82.7547 55.5614 81.936C55.7119 81.8337 55.9124 81.8849 56.0626 81.9872L61.1756 85.1079C61.3761 85.2102 61.6267 85.2102 61.7771 85.1079L81.7772 73.2904C81.9777 73.1881 82.078 72.9835 82.078 72.7277V49.1434C82.078 48.8876 81.9777 48.683 81.7772 48.5807L61.7771 36.8141C61.5766 36.7118 61.3259 36.7118 61.1756 36.8141L41.1754 48.5809C40.9749 48.6832 40.8747 48.939 40.8747 49.1436V72.7277C40.8747 72.9323 40.9749 73.1881 41.1754 73.2904L46.6392 76.5133C49.5967 78.0479 51.4511 76.2575 51.4511 74.467V51.1897C51.4511 50.8827 51.7019 50.5758 52.0528 50.5758H54.6092C54.91 50.5758 55.2107 50.8316 55.2107 51.1897V74.4668C55.2107 78.5084 53.0552 80.8616 49.2958 80.8616C48.1429 80.8616 47.2407 80.8616 44.6844 79.5826L39.4211 76.5133C38.1179 75.7457 37.3159 74.3133 37.3159 72.7786V49.1947C37.3159 47.6601 38.1179 46.2277 39.4211 45.4601L59.4213 33.6426C60.6743 32.9264 62.3785 32.9264 63.6316 33.6426L83.6318 45.4601C84.935 46.2275 85.737 47.6599 85.737 49.1947V72.7788C85.737 74.3135 84.935 75.7459 83.6318 76.5133L63.6316 88.3312C62.98 88.6381 62.2282 88.7916 61.5264 88.7916V88.7914ZM67.6918 72.574C58.9198 72.574 57.1154 68.4815 57.1154 65.0027C57.1154 64.6957 57.366 64.3888 57.7169 64.3888H60.3233C60.624 64.3888 60.8748 64.5934 60.8748 64.9004C61.2758 67.6116 62.4287 68.9419 67.7419 68.9419C71.9525 68.9419 73.7571 67.9699 73.7571 65.6679C73.7571 64.3376 73.2559 63.3657 66.6893 62.7004C61.2257 62.1377 57.8171 60.91 57.8171 56.4593C57.8171 52.3153 61.2255 49.8598 66.94 49.8598C73.3559 49.8598 76.5139 52.1107 76.9149 57.0219C76.9149 57.1753 76.8648 57.3288 76.7645 57.4823C76.6643 57.5846 76.5139 57.6869 76.3635 57.6869H73.7571C73.5063 57.6869 73.2559 57.4823 73.2056 57.2265C72.6041 54.4129 71.0503 53.4921 66.94 53.4921C62.3286 53.4921 61.7771 55.1291 61.7771 56.3568C61.7771 57.8406 62.4287 58.3008 68.6441 59.1193C74.8097 59.9378 77.7169 61.1146 77.7169 65.5142C77.6667 70.0162 74.0578 72.574 67.6918 72.574V72.574Z" fill="#539E43"/>
</g>
<defs>
<filter id="filter0_d_68_832" x="0" y="0" width="122" height="122" filterUnits="userSpaceOnUse" color-interpolation-filters="sRGB">
<feFlood flood-opacity="0" result="BackgroundImageFix"/>
<feColorMatrix in="SourceAlpha" type="matrix" values="0 0 0 0 0 0 0 0 0 0 0 0 0 0 0 0 0 0 127 0" result="hardAlpha"/>
<feMorphology radius="1" operator="dilate" in="SourceAlpha" result="effect1_dropShadow_68_832"/>
<feOffset/>
<feGaussianBlur stdDeviation="5"/>
<feComposite in2="hardAlpha" operator="out"/>
<feColorMatrix type="matrix" values="0 0 0 0 0 0 0 0 0 0 0 0 0 0 0 0 0 0 0.05 0"/>
<feBlend mode="normal" in2="BackgroundImageFix" result="effect1_dropShadow_68_832"/>
<feBlend mode="normal" in="SourceGraphic" in2="effect1_dropShadow_68_832" result="shape"/>
</filter>
<clipPath id="clip0_68_832">
<rect width="48.4211" height="55.7895" fill="white" transform="translate(37.3159 33.1052)"/>
</clipPath>
</defs>
</svg>
