<svg width="122" height="122" viewBox="0 0 122 122" fill="none" xmlns="http://www.w3.org/2000/svg">
<g filter="url(#filter0_d_109_1495)">
<circle cx="61" cy="61" r="50" fill="white"/>
</g>
<g clip-path="url(#clip0_109_1495)">
<path d="M89.7628 64.6823C91.7926 48.7933 80.5714 34.2668 64.7113 32.2372C48.8513 30.2074 34.2668 41.4286 32.2372 57.2887C30.2074 73.1487 41.4286 87.7042 57.2887 89.7628C73.1777 91.7926 87.7042 80.5714 89.7628 64.6823Z" fill="#FF6C37"/>
<path d="M71.4673 50.6198L59.2313 62.8557L55.7808 59.4052C67.8137 47.3725 69.0025 48.4162 71.467 50.6198H71.4673Z" fill="white"/>
<path d="M59.2312 63.1455C59.1442 63.1455 59.0861 63.1165 59.0281 63.0585L55.5488 59.6082C55.5214 59.582 55.4995 59.5505 55.4846 59.5156C55.4696 59.4808 55.4619 59.4432 55.4619 59.4053C55.4619 59.3673 55.4696 59.3298 55.4846 59.2949C55.4995 59.2601 55.5214 59.2286 55.5488 59.2024C67.7846 46.9664 69.0603 48.1262 71.6409 50.4458C71.6989 50.5038 71.7279 50.5618 71.7279 50.6488C71.7279 50.7358 71.6989 50.7938 71.6409 50.8518L59.4051 63.0585C59.3761 63.1165 59.2892 63.1455 59.2312 63.1455V63.1455ZM56.1868 59.4052L59.2312 62.4497L71.0321 50.6488C68.8866 48.7352 67.4366 48.1552 56.1868 59.4054V59.4052Z" fill="#FF6C37"/>
<path d="M62.7396 66.3641L59.4053 63.0296L71.641 50.7938C74.9176 54.0994 70.0175 59.4632 62.7396 66.3641Z" fill="white"/>
<path d="M62.7394 66.6541C62.6524 66.6541 62.5944 66.6251 62.5366 66.5671L59.202 63.2326C59.144 63.1746 59.144 63.1165 59.144 63.0295C59.144 62.9428 59.173 62.8846 59.231 62.8268L71.467 50.5908C71.4932 50.5633 71.5247 50.5414 71.5596 50.5265C71.5945 50.5115 71.632 50.5038 71.67 50.5038C71.708 50.5038 71.7455 50.5115 71.7804 50.5265C71.8153 50.5414 71.8468 50.5633 71.873 50.5908C72.2432 50.9334 72.5357 51.3513 72.7307 51.8165C72.9258 52.2816 73.0189 52.7832 73.0038 53.2874C72.9458 56.5059 69.2927 60.594 62.9716 66.5671C62.8846 66.6251 62.7976 66.6541 62.7396 66.6541H62.7394ZM59.811 63.0295C61.6666 64.9143 62.4496 65.6681 62.7394 65.9581C67.6105 61.319 72.3366 56.5639 72.3658 53.2874C72.3948 52.5336 72.1048 51.7796 71.6118 51.1998L59.811 63.0295V63.0295Z" fill="#FF6C37"/>
<path d="M55.8391 59.4922L58.3036 61.9567C58.3616 62.0147 58.3616 62.0727 58.3036 62.1307C58.2746 62.1597 58.2746 62.1597 58.2456 62.1597L53.1425 63.2615C52.8815 63.2905 52.6495 63.1165 52.5915 62.8557C52.5625 62.7107 52.6205 62.5657 52.7075 62.4787L55.6651 59.5212C55.7231 59.4632 55.8101 59.4342 55.8391 59.4922V59.4922Z" fill="white"/>
<path d="M53.0555 63.5516C52.6205 63.5516 52.3018 63.2036 52.3018 62.7688C52.3018 62.5658 52.3888 62.3628 52.5338 62.2178L55.4911 59.2602C55.6651 59.1152 55.8971 59.1152 56.0711 59.2602L58.5356 61.7248C58.7096 61.8698 58.7096 62.1308 58.5356 62.3048C58.4776 62.3628 58.4196 62.3918 58.3326 62.4208L53.2295 63.5226C53.1715 63.5226 53.1135 63.5516 53.0555 63.5516ZM55.7521 59.8112L52.9105 62.6528C52.8525 62.7108 52.8235 62.7978 52.8815 62.8848C52.9105 62.9718 52.9975 63.0006 53.0845 62.9718L57.8686 61.9278L55.7521 59.8112V59.8112Z" fill="#FF6C37"/>
<path d="M77.933 43.8351C76.0775 42.0374 73.0909 42.0954 71.2934 43.9801C69.4956 45.8647 69.5536 48.8222 71.4384 50.6198C72.1823 51.3386 73.1431 51.7909 74.1711 51.9064C75.199 52.0218 76.2363 51.7937 77.121 51.2578L73.8155 47.9522L77.9328 43.8351H77.933Z" fill="white"/>
<path d="M74.6853 52.2145C71.9308 52.2145 69.6982 49.982 69.6982 47.2274C69.6982 44.4729 71.9308 42.2404 74.6853 42.2404C75.9609 42.2404 77.2079 42.7334 78.1359 43.6321C78.1937 43.6901 78.2227 43.7481 78.2227 43.8351C78.2227 43.9221 78.1937 43.9801 78.1357 44.0381L74.2213 47.9522L77.2949 51.0258C77.4109 51.1418 77.4109 51.3158 77.2949 51.4318L77.2369 51.4898C76.4829 51.9535 75.5841 52.2148 74.6853 52.2148V52.2145ZM74.6853 42.8494C72.2498 42.8494 70.278 44.8209 70.307 47.2564C70.307 49.692 72.2788 51.6638 74.7143 51.6348C75.3811 51.6348 76.0481 51.4898 76.6569 51.1708L73.6126 48.1552C73.5546 48.0972 73.5256 48.0392 73.5256 47.9522C73.5256 47.8655 73.5546 47.8072 73.6126 47.7494L77.4979 43.8639C76.7149 43.1971 75.7291 42.8494 74.6853 42.8494V42.8494Z" fill="#FF6C37"/>
<path d="M78.02 43.9221L77.962 43.8641L73.8159 47.9522L77.0922 51.2288C77.4112 51.0258 77.73 50.7938 77.991 50.5328C78.4303 50.1025 78.7798 49.5893 79.0193 49.023C79.2588 48.4566 79.3835 47.8484 79.3862 47.2335C79.3889 46.6186 79.2695 46.0093 79.035 45.4409C78.8005 44.8725 78.4555 44.3562 78.02 43.9221V43.9221Z" fill="white"/>
<path d="M77.1212 51.5478C77.0342 51.5478 76.9762 51.5188 76.9182 51.4608L73.6127 48.1553C73.5549 48.0973 73.5259 48.0393 73.5259 47.9523C73.5259 47.8655 73.5549 47.8073 73.6129 47.7495L77.73 43.6322C77.7561 43.6047 77.7876 43.5828 77.8225 43.5678C77.8574 43.5529 77.895 43.5452 77.933 43.5452C77.9709 43.5452 78.0085 43.5529 78.0434 43.5678C78.0783 43.5828 78.1098 43.6047 78.136 43.6322L78.223 43.6902C80.1657 45.6327 80.1657 48.7643 78.252 50.7358C77.962 51.0258 77.6432 51.2868 77.2952 51.4898C77.2082 51.5188 77.1502 51.5478 77.1212 51.5478V51.5478ZM74.2217 47.9523L77.1502 50.8808C77.3822 50.7358 77.6142 50.5328 77.788 50.3591C79.4407 48.7063 79.5277 46.0097 77.933 44.27L74.2219 47.9523H74.2217Z" fill="#FF6C37"/>
<path d="M71.9599 51.1419C71.6252 50.8077 71.1715 50.62 70.6986 50.62C70.2256 50.62 69.772 50.8077 69.4373 51.1419L58.5063 62.0728L60.3329 63.8996L71.9019 53.7514C72.6559 53.1134 72.7136 51.9826 72.0759 51.2289C72.0179 51.1999 71.9889 51.1709 71.9599 51.1419V51.1419Z" fill="white"/>
<path d="M60.3041 64.1896C60.2171 64.1896 60.1591 64.1606 60.1011 64.1026L58.2745 62.2758C58.247 62.2496 58.2251 62.2181 58.2102 62.1832C58.1952 62.1483 58.1875 62.1108 58.1875 62.0728C58.1875 62.0348 58.1952 61.9973 58.2102 61.9624C58.2251 61.9275 58.247 61.896 58.2745 61.8698L69.2055 50.9388C69.3974 50.7459 69.6256 50.5927 69.8769 50.4882C70.1281 50.3837 70.3976 50.33 70.6698 50.33C70.9419 50.33 71.2114 50.3837 71.4627 50.4882C71.714 50.5927 71.9421 50.7459 72.134 50.9388C72.327 51.1308 72.4801 51.3589 72.5846 51.6102C72.6891 51.8615 72.7429 52.131 72.7429 52.4031C72.7429 52.6753 72.6891 52.9447 72.5846 53.196C72.4801 53.4473 72.327 53.6755 72.134 53.8674L72.047 53.9544L60.4781 64.1026C60.4491 64.1606 60.3911 64.1896 60.3041 64.1896V64.1896ZM58.9123 62.0728L60.3331 63.4936L71.699 53.5194C72.337 52.9974 72.395 52.0406 71.873 51.4028C71.3513 50.7648 70.3943 50.7068 69.7565 51.2288C69.7275 51.2578 69.6985 51.2868 69.6405 51.3158L58.9123 62.073V62.0728Z" fill="#FF6C37"/>
<path d="M50.1268 74.5116C50.0111 74.5696 49.9531 74.6856 49.9818 74.8016L50.4748 76.8891C50.5908 77.1791 50.4168 77.5271 50.0978 77.6141C49.8661 77.7011 49.6051 77.6141 49.4601 77.4401L46.2705 74.2796L56.6797 63.8706L60.2752 63.9286L62.7108 66.3642C62.1308 66.8569 58.6225 70.2495 50.1268 74.5116V74.5116Z" fill="white"/>
<path d="M49.8949 77.9038C49.6629 77.9038 49.4309 77.8171 49.2859 77.6431L46.1253 74.4825C46.0676 74.4245 46.0386 74.3665 46.0386 74.2798C46.0386 74.1928 46.0676 74.1348 46.1256 74.0768L56.5345 63.6676C56.5925 63.6096 56.6795 63.5806 56.7375 63.5806L60.3331 63.6386C60.4199 63.6386 60.4781 63.6676 60.5359 63.7256L62.9714 66.1611C63.0294 66.2191 63.0584 66.3061 63.0584 66.3931C63.0584 66.4801 63.0294 66.5381 62.9424 66.5961L62.7394 66.7699C59.6661 69.4664 55.4908 72.163 50.3007 74.7435L50.7937 76.8023C50.8807 77.1791 50.7067 77.5851 50.3587 77.7878C50.1847 77.8751 50.0397 77.9041 49.8949 77.9041V77.9038ZM46.7053 74.2798L49.6919 77.2371C49.7789 77.3821 49.9529 77.4401 50.0977 77.3531C50.2427 77.2661 50.3007 77.0921 50.2137 76.9471L49.7209 74.8595C49.6629 74.5985 49.7789 74.3665 50.0109 74.2508C55.1428 71.6702 59.2891 69.0027 62.3336 66.3641L60.1881 64.2186L56.8535 64.1606L46.7053 74.2798V74.2798Z" fill="#FF6C37"/>
<path d="M43.8062 76.7733L46.2995 74.2798L50.0111 77.9909L44.096 77.5851C43.835 77.5561 43.661 77.3241 43.6902 77.0631C43.6902 76.9471 43.7192 76.8311 43.806 76.7731L43.8062 76.7733Z" fill="white"/>
<path d="M50.011 78.2519L44.0669 77.8461C43.6319 77.8171 43.3419 77.4401 43.3712 77.0051C43.4002 76.8311 43.4582 76.6573 43.6032 76.5413L46.0967 74.0478C46.1229 74.0203 46.1544 73.9984 46.1892 73.9835C46.2241 73.9686 46.2617 73.9608 46.2996 73.9608C46.3375 73.9608 46.3751 73.9686 46.41 73.9835C46.4448 73.9984 46.4763 74.0203 46.5025 74.0478L50.2138 77.7589C50.3008 77.8461 50.3298 77.9621 50.2718 78.0779C50.2138 78.1939 50.1268 78.2519 50.011 78.2519ZM46.2995 74.6858L44.0089 76.9763C43.9219 77.0341 43.9219 77.1791 44.0089 77.2371C44.0379 77.2661 44.0669 77.2951 44.1249 77.2951L49.257 77.6431L46.2995 74.6855V74.6858ZM55.6649 65.2043C55.4909 65.2043 55.3749 65.0593 55.3749 64.9143C55.3749 64.8273 55.4039 64.7693 55.4619 64.7113L58.2744 61.8988C58.3006 61.8713 58.3321 61.8494 58.367 61.8344C58.4019 61.8195 58.4395 61.8118 58.4774 61.8118C58.5154 61.8118 58.553 61.8195 58.5879 61.8344C58.6228 61.8494 58.6543 61.8713 58.6804 61.8988L60.507 63.7256C60.594 63.8126 60.623 63.8996 60.594 64.0156C60.565 64.1026 60.478 64.1896 60.362 64.2186L55.7229 65.2041H55.6649V65.2043ZM58.4774 62.5078L56.5637 64.4213L59.6952 63.7546L58.4774 62.5078V62.5078Z" fill="#FF6C37"/>
<path d="M60.275 63.9285L57.0857 64.6243C56.8537 64.6823 56.6217 64.5373 56.5637 64.3053C56.5347 64.1603 56.5637 64.0153 56.6797 63.8995L58.4485 62.1307L60.275 63.9285V63.9285Z" fill="white"/>
<path d="M57.0278 64.9144C56.9323 64.9153 56.8376 64.8972 56.7492 64.8611C56.6608 64.8251 56.5805 64.7717 56.513 64.7042C56.4454 64.6367 56.3921 64.5563 56.356 64.4679C56.3199 64.3795 56.3018 64.2848 56.3028 64.1894C56.3028 63.9866 56.3898 63.8126 56.5058 63.6676L58.2745 61.8988C58.3007 61.8713 58.3322 61.8494 58.3671 61.8345C58.402 61.8195 58.4396 61.8118 58.4775 61.8118C58.5155 61.8118 58.5531 61.8195 58.588 61.8345C58.6229 61.8494 58.6544 61.8713 58.6805 61.8988L60.5071 63.7256C60.5941 63.8126 60.6231 63.8996 60.5941 64.0156C60.5651 64.1026 60.4781 64.1896 60.3621 64.2186L57.1728 64.9144H57.0278ZM58.4775 62.5078L56.9118 64.0734C56.8538 64.1316 56.8538 64.1896 56.8828 64.2474C56.9118 64.3054 56.9698 64.3344 57.0568 64.3344L59.7243 63.7544L58.4775 62.5078V62.5078ZM78.0489 46.7055C77.9909 46.5318 77.7879 46.4448 77.6139 46.5028C77.4401 46.5608 77.3531 46.7635 77.4111 46.9378C77.4111 46.9665 77.4401 46.9955 77.4401 47.0245C77.6141 47.3725 77.5561 47.8075 77.3241 48.1263C77.2081 48.2713 77.2371 48.4743 77.3531 48.5903C77.4981 48.7063 77.7009 48.6773 77.8169 48.5323C78.2519 47.9813 78.3389 47.2855 78.0489 46.7055V46.7055Z" fill="#FF6C37"/>
</g>
<defs>
<filter id="filter0_d_109_1495" x="0" y="0" width="122" height="122" filterUnits="userSpaceOnUse" color-interpolation-filters="sRGB">
<feFlood flood-opacity="0" result="BackgroundImageFix"/>
<feColorMatrix in="SourceAlpha" type="matrix" values="0 0 0 0 0 0 0 0 0 0 0 0 0 0 0 0 0 0 127 0" result="hardAlpha"/>
<feMorphology radius="1" operator="dilate" in="SourceAlpha" result="effect1_dropShadow_109_1495"/>
<feOffset/>
<feGaussianBlur stdDeviation="5"/>
<feComposite in2="hardAlpha" operator="out"/>
<feColorMatrix type="matrix" values="0 0 0 0 0 0 0 0 0 0 0 0 0 0 0 0 0 0 0.05 0"/>
<feBlend mode="normal" in2="BackgroundImageFix" result="effect1_dropShadow_109_1495"/>
<feBlend mode="normal" in="SourceGraphic" in2="effect1_dropShadow_109_1495" result="shape"/>
</filter>
<clipPath id="clip0_109_1495">
<rect width="58" height="58" fill="white" transform="translate(32 32)"/>
</clipPath>
</defs>
</svg>
