<svg width="122" height="122" viewBox="0 0 122 122" fill="none" xmlns="http://www.w3.org/2000/svg">
<g filter="url(#filter0_d_109_1445)">
<circle cx="61" cy="61" r="50" fill="white"/>
</g>
<g clip-path="url(#clip0_109_1445)">
<path d="M43.8276 39.6844C43.8276 47.3694 48.6546 51.9793 58.3093 54.4064L68.5364 56.752C77.7003 58.8551 83.264 64.0321 83.264 72.4444C83.3458 76.0844 82.1189 79.6436 79.9093 82.5553C79.9093 74.1431 75.4913 69.6135 64.9363 66.863L54.8727 64.5987C46.7734 62.818 40.5547 58.5305 40.5547 49.3905C40.5547 45.9121 41.6998 42.4338 43.8276 39.6838" fill="#F04939"/>
<path d="M184.638 68.3192V33.2136H195.929V88.7843H184.638V68.3192ZM73.6094 70.3414C77.9456 73.0919 79.9093 76.9746 79.9093 82.5559C76.2274 87.1664 69.9275 89.6738 62.4819 89.6738C49.9639 89.6738 41.046 83.5263 39.1636 72.9302H51.1908C52.7455 77.7832 56.8363 80.048 62.4001 80.048C69.0277 80.1289 73.5276 76.5697 73.6094 70.3414M43.8276 39.6036C47.3453 35.074 53.4004 32.3235 60.7631 32.3235C73.6088 32.3235 80.9726 39.0375 82.8544 48.4207H71.2368C69.928 44.6998 66.7363 41.7875 60.9272 41.7875C54.6273 41.8684 50.3729 45.4276 50.1275 51.0898C45.9114 48.791 43.6634 44.2949 43.8276 39.6036V39.6036Z" fill="#F37368"/>
</g>
<defs>
<filter id="filter0_d_109_1445" x="0" y="0" width="122" height="122" filterUnits="userSpaceOnUse" color-interpolation-filters="sRGB">
<feFlood flood-opacity="0" result="BackgroundImageFix"/>
<feColorMatrix in="SourceAlpha" type="matrix" values="0 0 0 0 0 0 0 0 0 0 0 0 0 0 0 0 0 0 127 0" result="hardAlpha"/>
<feMorphology radius="1" operator="dilate" in="SourceAlpha" result="effect1_dropShadow_109_1445"/>
<feOffset/>
<feGaussianBlur stdDeviation="5"/>
<feComposite in2="hardAlpha" operator="out"/>
<feColorMatrix type="matrix" values="0 0 0 0 0 0 0 0 0 0 0 0 0 0 0 0 0 0 0.05 0"/>
<feBlend mode="normal" in2="BackgroundImageFix" result="effect1_dropShadow_109_1445"/>
<feBlend mode="normal" in="SourceGraphic" in2="effect1_dropShadow_109_1445" result="shape"/>
</filter>
<clipPath id="clip0_109_1445">
<rect width="44" height="58" fill="white" transform="translate(39 32)"/>
</clipPath>
</defs>
</svg>
