<svg width="122" height="122" viewBox="0 0 122 122" fill="none" xmlns="http://www.w3.org/2000/svg">
<g filter="url(#filter0_d_68_840)">
<circle cx="61" cy="61" r="50" fill="white"/>
</g>
<g clip-path="url(#clip0_68_840)">
<path d="M37.126 81.1417L37.5145 80.5848L55.888 44.8888L55.9268 44.5109L47.8276 28.9338C47.1486 27.6289 45.2382 27.9589 45.0156 29.4196L37.126 81.1417Z" fill="#FFC24A"/>
<path d="M61.8311 56.2933L67.8617 49.9697L61.8292 38.1787C61.2566 37.0626 59.6578 37.0592 59.0913 38.1787L55.8682 44.4718V45.0077L61.8309 56.2933H61.8311Z" fill="#F4BD62"/>
<path d="M37.126 81.1416L37.302 80.9602L37.9418 80.6942L61.4525 56.7112L61.7504 55.881L55.8854 44.4377L37.126 81.1416Z" fill="#F6820C"/>
<path d="M62.5845 93.2367L83.8623 81.0865L77.7861 42.7709C77.596 41.5721 76.1597 41.0983 75.3215 41.9577L37.126 81.1416L58.2817 93.2357C58.9393 93.6116 59.6799 93.8091 60.433 93.8092C61.1861 93.8094 61.9268 93.6123 62.5845 93.2367" fill="#FDE068"/>
<path d="M83.6714 80.9846L77.6413 42.96C77.4528 41.7702 76.2582 41.278 75.4265 42.1311L37.3618 81.067L58.2853 93.0413C58.9379 93.4143 59.6728 93.6103 60.4202 93.6105C61.1676 93.6107 61.9026 93.4151 62.5554 93.0424L83.6716 80.9844L83.6714 80.9846Z" fill="#FCCA3F"/>
<path d="M62.5841 92.8786C61.9264 93.2542 61.1858 93.4512 60.4327 93.4511C59.6796 93.4509 58.9391 93.2535 58.2815 92.8776L37.2962 80.9574L37.126 81.1415L58.2815 93.2357C58.9391 93.6116 59.6797 93.809 60.4328 93.8092C61.1859 93.8093 61.9266 93.6122 62.5843 93.2366L83.8621 81.0864L83.81 80.7582L62.5843 92.8788L62.5841 92.8786Z" fill="#EEAB37"/>
</g>
<defs>
<filter id="filter0_d_68_840" x="0" y="0" width="122" height="122" filterUnits="userSpaceOnUse" color-interpolation-filters="sRGB">
<feFlood flood-opacity="0" result="BackgroundImageFix"/>
<feColorMatrix in="SourceAlpha" type="matrix" values="0 0 0 0 0 0 0 0 0 0 0 0 0 0 0 0 0 0 127 0" result="hardAlpha"/>
<feMorphology radius="1" operator="dilate" in="SourceAlpha" result="effect1_dropShadow_68_840"/>
<feOffset/>
<feGaussianBlur stdDeviation="5"/>
<feComposite in2="hardAlpha" operator="out"/>
<feColorMatrix type="matrix" values="0 0 0 0 0 0 0 0 0 0 0 0 0 0 0 0 0 0 0.05 0"/>
<feBlend mode="normal" in2="BackgroundImageFix" result="effect1_dropShadow_68_840"/>
<feBlend mode="normal" in="SourceGraphic" in2="effect1_dropShadow_68_840" result="shape"/>
</filter>
<clipPath id="clip0_68_840">
<rect width="46.8468" height="65.7658" fill="white" transform="translate(37.126 28.1171)"/>
</clipPath>
</defs>
</svg>
