<svg width="122" height="122" viewBox="0 0 122 122" fill="none" xmlns="http://www.w3.org/2000/svg">
<g filter="url(#filter0_d_109_1422)">
<circle cx="61" cy="61" r="50" fill="#F8F5F6"/>
</g>
<g clip-path="url(#clip0_109_1422)">
<path fill-rule="evenodd" clip-rule="evenodd" d="M29 61.5C29 52.8805 32.4241 44.614 38.519 38.519C44.614 32.4241 52.8805 29 61.5 29C70.1195 29 78.386 32.4241 84.481 38.519C90.5759 44.614 94 52.8805 94 61.5C94 70.1195 90.5759 78.386 84.481 84.481C78.386 90.5759 70.1195 94 61.5 94C52.8805 94 44.614 90.5759 38.519 84.481C32.4241 78.386 29 70.1195 29 61.5H29ZM43.3217 54.4323C44.5044 51.3951 46.4292 48.7027 48.9203 46.6009C51.4115 44.4991 54.3895 43.0549 57.5824 42.4003C60.7754 41.7457 64.0814 41.9015 67.1986 42.8534C70.3159 43.8054 73.1449 45.5232 75.4273 47.85L78.5213 44.8167C75.6383 41.8772 72.0432 39.7344 68.0862 38.597C64.1291 37.4596 59.9449 37.3663 55.9411 38.3263C51.9372 39.2862 48.2502 41.2666 45.2391 44.0747C42.228 46.8828 39.9953 50.4228 38.7587 54.35L38.3687 55.6067L67.3977 84.6357L68.65 84.2457C73.101 82.8438 77.0429 80.167 79.9876 76.5468C82.9322 72.9267 84.7502 68.5222 85.2163 63.879L85.4503 61.5H68V65.8333H80.519C79.8072 68.9408 78.346 71.827 76.2629 74.2402C74.1798 76.6534 71.5379 78.5204 68.5677 79.6783L43.3217 54.4367V54.4323ZM55.6327 84.7007L38.2993 67.3673L41.3673 64.2993L58.7007 81.6327L55.6327 84.7007Z" fill="#653399"/>
</g>
<defs>
<filter id="filter0_d_109_1422" x="0" y="0" width="122" height="122" filterUnits="userSpaceOnUse" color-interpolation-filters="sRGB">
<feFlood flood-opacity="0" result="BackgroundImageFix"/>
<feColorMatrix in="SourceAlpha" type="matrix" values="0 0 0 0 0 0 0 0 0 0 0 0 0 0 0 0 0 0 127 0" result="hardAlpha"/>
<feMorphology radius="1" operator="dilate" in="SourceAlpha" result="effect1_dropShadow_109_1422"/>
<feOffset/>
<feGaussianBlur stdDeviation="5"/>
<feComposite in2="hardAlpha" operator="out"/>
<feColorMatrix type="matrix" values="0 0 0 0 0 0 0 0 0 0 0 0 0 0 0 0 0 0 0.05 0"/>
<feBlend mode="normal" in2="BackgroundImageFix" result="effect1_dropShadow_109_1422"/>
<feBlend mode="normal" in="SourceGraphic" in2="effect1_dropShadow_109_1422" result="shape"/>
</filter>
<clipPath id="clip0_109_1422">
<rect width="65" height="65" fill="white" transform="translate(29 29)"/>
</clipPath>
</defs>
</svg>
