<svg width="122" height="122" viewBox="0 0 122 122" fill="none" xmlns="http://www.w3.org/2000/svg">
<g filter="url(#filter0_d_109_1434)">
<circle cx="61" cy="61" r="50" fill="white"/>
</g>
<path d="M71.5679 49.7909L76.8704 44.3897L77.2238 42.1154C67.5612 33.1657 52.2014 34.1805 43.491 44.2329C41.0715 47.0249 39.2765 50.5057 38.3193 54.1001L40.2184 53.8276L50.8231 52.0462L51.6419 51.1933C56.3591 45.9161 64.3351 45.2062 69.7818 49.6962L71.5679 49.7909Z" fill="#EA4335"/>
<path d="M84.4238 53.9413C83.205 49.3695 80.7028 45.2595 77.2237 42.1156L69.7817 49.6962C72.9241 52.3117 74.7143 56.252 74.6376 60.3848V61.7304C78.2955 61.7304 81.2611 64.751 81.2611 68.477C81.2611 72.2032 78.2955 75.1481 74.6376 75.1481H61.3723L60.0698 76.5884V84.6807L61.3723 85.9503H74.6376C84.1522 86.0258 91.9254 78.3061 91.9995 68.6144C92.0443 62.7399 89.2009 57.2326 84.4238 53.9413Z" fill="#4285F4"/>
<path d="M48.1254 85.9504H61.3721V75.1479H48.1254C47.1815 75.1477 46.2675 74.9411 45.4092 74.5416L43.5299 75.129L38.1902 80.5302L37.7251 82.3686C40.7196 84.6717 44.3731 85.9669 48.1254 85.9504Z" fill="#34A853"/>
<path d="M48.1253 50.909C38.6105 50.9668 30.9436 58.8707 31.0003 68.5624C31.032 73.9746 33.5135 79.0692 37.7251 82.3685L45.4092 74.5416C42.0754 73.0074 40.594 69.011 42.1002 65.6154C43.6061 62.2197 47.5296 60.7107 50.863 62.2447C52.332 62.9207 53.5084 64.1192 54.172 65.6154L61.8561 57.7884C58.5866 53.4348 53.5065 50.8894 48.1253 50.909Z" fill="#FBBC05"/>
<defs>
<filter id="filter0_d_109_1434" x="0" y="0" width="122" height="122" filterUnits="userSpaceOnUse" color-interpolation-filters="sRGB">
<feFlood flood-opacity="0" result="BackgroundImageFix"/>
<feColorMatrix in="SourceAlpha" type="matrix" values="0 0 0 0 0 0 0 0 0 0 0 0 0 0 0 0 0 0 127 0" result="hardAlpha"/>
<feMorphology radius="1" operator="dilate" in="SourceAlpha" result="effect1_dropShadow_109_1434"/>
<feOffset/>
<feGaussianBlur stdDeviation="5"/>
<feComposite in2="hardAlpha" operator="out"/>
<feColorMatrix type="matrix" values="0 0 0 0 0 0 0 0 0 0 0 0 0 0 0 0 0 0 0.05 0"/>
<feBlend mode="normal" in2="BackgroundImageFix" result="effect1_dropShadow_109_1434"/>
<feBlend mode="normal" in="SourceGraphic" in2="effect1_dropShadow_109_1434" result="shape"/>
</filter>
</defs>
</svg>
