<svg width="122" height="122" viewBox="0 0 122 122" fill="none" xmlns="http://www.w3.org/2000/svg">
<g filter="url(#filter0_d_109_1511)">
<circle cx="61" cy="61" r="50" fill="white"/>
</g>
<path d="M52.834 75.9286C52.834 75.9286 50.4625 77.3039 54.5218 77.7693C59.4397 78.3287 61.953 78.2486 67.3725 77.2256C67.3725 77.2256 68.7975 78.1165 70.7871 78.8883C58.6383 84.0807 43.2915 78.5875 52.834 75.9286M51.3494 69.1527C51.3494 69.1527 48.6895 71.1163 52.7519 71.5352C58.0052 72.0757 62.1539 72.1199 69.3327 70.7414C69.3327 70.7414 70.3257 71.7452 71.887 72.2943C57.1981 76.5777 40.8374 72.6321 51.3494 69.1527" fill="#5382A1"/>
<path d="M63.8644 57.6588C66.858 61.0957 63.0779 64.1885 63.0779 64.1885C63.0779 64.1885 70.6788 60.2755 67.188 55.3753C63.9278 50.806 61.4274 48.5353 74.9628 40.7072C74.9628 40.7072 53.7169 45.9987 63.8644 57.6586" fill="#E76F00"/>
<path d="M79.9325 80.9404C79.9325 80.9404 81.6875 82.3824 77.9996 83.498C70.9871 85.6166 48.8126 86.2563 42.6526 83.5824C40.4383 82.622 44.5908 81.2888 45.897 81.0089C47.2592 80.7143 48.0378 80.7693 48.0378 80.7693C45.5752 79.0392 32.1205 84.1662 41.2036 85.6343C65.974 89.6403 86.3576 83.8306 79.9325 80.9404ZM53.9741 62.1322C53.9741 62.1322 42.695 64.8039 49.98 65.7739C53.0559 66.1846 59.1878 66.0918 64.8995 65.6144C69.5674 65.222 74.2546 64.387 74.2546 64.387C74.2546 64.387 72.6086 65.0899 71.4178 65.9008C59.9638 68.9049 37.8368 67.5074 44.2069 64.4345C49.5941 61.8376 53.9743 62.1322 53.9743 62.1322M74.208 73.4108C85.8518 67.3771 80.4682 61.5789 76.7105 62.3601C75.7894 62.5512 75.3789 62.7167 75.3789 62.7167C75.3789 62.7167 75.7208 62.1827 76.3738 61.9516C83.8075 59.3453 89.5246 69.6383 73.9741 73.7149C73.9741 73.7151 74.1543 73.5545 74.208 73.4108Z" fill="#5382A1"/>
<path d="M67.1882 28.0665C67.1882 28.0665 73.6366 34.4994 61.0721 44.3909C50.9969 52.3258 58.7747 56.8501 61.068 62.0192C55.1868 56.7277 50.8707 52.0694 53.7664 47.7341C58.0162 41.3698 69.7899 38.2843 67.1882 28.0663" fill="#E76F00"/>
<path d="M55.1187 89.7608C66.2951 90.4743 83.4576 89.3649 83.864 84.0912C83.864 84.0912 83.0827 86.0906 74.6274 87.6782C65.0881 89.4683 53.3229 89.2594 46.3447 88.112C46.3449 88.112 47.7732 89.2911 55.1189 89.7608" fill="#5382A1"/>
<defs>
<filter id="filter0_d_109_1511" x="0" y="0" width="122" height="122" filterUnits="userSpaceOnUse" color-interpolation-filters="sRGB">
<feFlood flood-opacity="0" result="BackgroundImageFix"/>
<feColorMatrix in="SourceAlpha" type="matrix" values="0 0 0 0 0 0 0 0 0 0 0 0 0 0 0 0 0 0 127 0" result="hardAlpha"/>
<feMorphology radius="1" operator="dilate" in="SourceAlpha" result="effect1_dropShadow_109_1511"/>
<feOffset/>
<feGaussianBlur stdDeviation="5"/>
<feComposite in2="hardAlpha" operator="out"/>
<feColorMatrix type="matrix" values="0 0 0 0 0 0 0 0 0 0 0 0 0 0 0 0 0 0 0.05 0"/>
<feBlend mode="normal" in2="BackgroundImageFix" result="effect1_dropShadow_109_1511"/>
<feBlend mode="normal" in="SourceGraphic" in2="effect1_dropShadow_109_1511" result="shape"/>
</filter>
</defs>
</svg>
