<svg width="122" height="122" viewBox="0 0 122 122" fill="none" xmlns="http://www.w3.org/2000/svg">
<g filter="url(#filter0_d_109_1451)">
<circle cx="61" cy="61" r="50" fill="white"/>
</g>
<g clip-path="url(#clip0_109_1451)">
<path d="M49.2539 67.7352L51.0165 73.377C51.4126 74.658 51.5777 75.5522 51.5116 76.0619C52.4756 73.5149 53.1492 70.7393 53.5324 67.7352H55.6519C54.7405 72.626 53.5385 76.18 52.0465 78.3971C50.884 80.1056 49.6105 80.9598 48.2237 80.9598C47.8539 80.9598 47.3981 80.8496 46.8572 80.6308V79.4519C47.1215 79.4901 47.4315 79.5105 47.7881 79.5105C48.4351 79.5105 48.9565 79.3336 49.3532 78.9806C49.8282 78.5505 50.066 78.0671 50.066 77.5313C50.066 77.1654 49.8805 76.4146 49.5114 75.2788L47.0554 67.7352H49.2538H49.2539ZM35.7635 64.2676L38.9921 73.9847H39.012L42.2603 64.2676H44.9143C45.4954 69.0866 45.8387 73.4958 45.944 77.4925H43.7065C43.6278 73.7564 43.4097 70.2433 43.0531 66.9524H43.0336L39.6263 77.4925H37.9223L34.5357 66.9524H34.5158C34.2645 70.1129 34.1064 73.626 34.0404 77.4925H32C32.1319 72.7901 32.4618 68.3822 32.99 64.2676H35.7637H35.7635Z" fill="#00758F"/>
<path d="M71.9315 64.0713C75.4044 64.0713 77.1409 66.26 77.1409 70.6352C77.1409 73.0128 76.6186 74.8087 75.5752 76.0219C75.3872 76.2436 75.1793 76.4352 74.9604 76.6126L77.4181 77.8113L77.4157 77.8112L76.5431 79.2977L73.3425 77.4555C72.8121 77.6105 72.2283 77.688 71.5922 77.688C69.887 77.688 68.6133 77.1977 67.7711 76.2185C66.8468 75.1352 66.3848 73.4298 66.3848 71.1052C66.3848 68.7411 66.9061 66.952 67.9499 65.7372C68.9006 64.626 70.228 64.0712 71.9315 64.0712V64.0713ZM61.2967 64.0905C62.5379 64.0905 63.6665 64.4181 64.6831 65.0711L64.1668 66.2061C63.2969 65.8414 62.4392 65.6582 61.5935 65.6582C60.9072 65.6582 60.3784 65.8211 60.0098 66.149C59.6391 66.474 59.4099 66.8921 59.4099 67.4019C59.4099 68.1853 59.9756 68.8646 61.0202 69.4385C61.3624 69.6231 61.7034 69.8097 62.0432 69.9985L62.1211 70.0417L62.1602 70.0634L62.2383 70.1067L62.2772 70.1283L62.3552 70.1717C63.1459 70.6114 63.8899 71.0312 63.8899 71.0312C64.9344 71.7625 65.455 72.5423 65.455 73.8266C65.455 74.9483 65.0384 75.8689 64.2078 76.5894C63.3766 77.3066 62.26 77.6662 60.8617 77.6662C59.5538 77.6662 58.2863 77.2523 57.0586 76.4314L57.6329 75.2953C58.6895 75.8178 59.6456 76.0787 60.5042 76.0787C61.3094 76.0787 61.9397 75.9014 62.3956 75.5511C62.8507 75.1983 63.1233 74.7063 63.1233 74.0824C63.1233 73.2972 62.5696 72.6259 61.5538 72.0628C61.2359 71.8895 60.9189 71.7146 60.6028 71.5379L60.525 71.4945C60.382 71.4148 60.2381 71.3341 60.097 71.2551L60.0206 71.2122C59.3346 70.8273 58.7416 70.4911 58.7416 70.4911C57.7262 69.7584 57.217 68.9722 57.217 67.6768C57.217 66.6055 57.5967 65.7396 58.355 65.0808C59.1151 64.4206 60.0958 64.0905 61.2967 64.0905V64.0905ZM81.2223 64.2675V75.8656H85.4406V77.4924H79.0828V64.2675H81.2223ZM87.7847 75.8706V76.1455H87.3209V77.491H86.9663V76.1455H86.4845V75.8706H87.7848H87.7847ZM88.6411 75.8706L89.0864 76.9751L89.4954 75.8706H89.9981V77.491H89.6639V76.2578L89.1983 77.491H88.9573L88.491 76.2578H88.4731V77.491H88.1569V75.8706H88.6412H88.6411ZM71.7131 65.6977C69.6666 65.6977 68.6427 67.3638 68.6427 70.6939C68.6427 72.6014 68.914 73.9847 69.4556 74.8468C69.9573 75.6447 70.7429 76.0428 71.8126 76.0428C73.8591 76.0428 74.8828 74.3637 74.8828 71.007C74.8828 69.1262 74.6115 67.7548 74.0706 66.8922C73.5684 66.0961 72.7832 65.6977 71.7132 65.6977H71.7131Z" fill="#F29111"/>
<path d="M66.349 42.8195C67.0279 41.1739 69.4017 42.4201 70.3229 42.9949C70.5487 43.1387 70.8077 43.4426 71.0665 43.5549C71.4704 43.5705 71.8739 43.6017 72.2784 43.6183C73.0372 43.7942 73.7479 43.9379 74.3458 44.2739C77.1244 45.8881 78.9331 47.533 80.5978 50.25C80.9535 50.8255 81.1312 51.4483 81.4218 52.0711C81.8251 52.9993 82.2782 53.9738 82.7463 54.8516C82.9558 55.2677 83.118 55.7305 83.409 56.0819C83.5226 56.2426 83.8453 56.29 84.0383 56.386C84.5716 56.6583 85.2177 56.865 85.7193 57.1846C86.6561 57.7608 87.5618 58.4474 88.3851 59.1503C88.692 59.4216 88.9011 59.8057 89.1935 60.0927V60.2375C88.9339 60.316 88.6753 60.3965 88.4165 60.461C87.8511 60.6042 87.3503 60.5718 86.8017 60.7152C86.4628 60.8122 86.042 60.9402 85.6865 60.9727L85.7193 61.0053C85.9285 61.5948 87.0599 62.0742 87.5774 62.4267C88.2059 62.8742 88.7882 63.4168 89.257 64.04C89.4189 64.1991 89.5808 64.3438 89.7418 64.5023C89.8544 64.663 89.8862 64.8709 90.0001 65.0141V65.0626C89.8739 65.0187 89.7832 64.9349 89.6972 64.8473L89.6459 64.7944C89.5946 64.7419 89.5428 64.6903 89.4838 64.6477C89.1272 64.4075 88.7731 64.12 88.4165 63.8967C87.8034 63.5129 87.0923 63.2902 86.4628 62.905C86.1069 62.6814 85.7676 62.4267 85.4283 62.1708C85.1208 61.9466 84.7821 61.5159 84.5888 61.1963C84.4749 61.0197 84.4593 60.8122 84.3293 60.6845C84.3525 60.4711 84.5506 60.4078 84.7506 60.3557L84.7966 60.3438C84.8655 60.3261 84.9331 60.3084 84.992 60.2851C85.8318 59.9333 86.8331 59.8057 88.1261 59.8376C88.0774 59.5174 87.2695 59.1183 87.0115 58.9266C86.4938 58.5585 85.9457 58.1744 85.3965 57.8394C85.1055 57.6639 84.604 57.5359 84.2816 57.3925C83.8453 57.2166 82.8758 57.0408 82.634 56.7058C82.2234 56.1777 81.9284 55.5478 81.642 54.9115L81.5641 54.7378C81.5381 54.6799 81.512 54.6221 81.4859 54.5643C81.1474 53.798 80.7269 52.9991 80.3876 52.2145C80.2102 51.8318 80.1288 51.4959 79.9345 51.1288C78.7556 48.8762 77.0107 46.9902 74.8952 45.6639C74.2 45.2323 73.4248 44.8329 72.5691 44.5615C72.0841 44.417 71.5021 44.4969 70.9854 44.386H70.6453C70.3551 44.3054 70.1128 44.0019 69.8864 43.8418C69.3862 43.5068 68.8853 43.2819 68.2872 43.0428C68.0776 42.947 67.4791 42.7237 67.2702 42.8995C67.1409 42.9315 67.0753 42.9797 67.0435 43.1078C66.9148 43.2989 67.0279 43.5867 67.108 43.7629C67.3507 44.2736 67.6896 44.5771 67.9973 45.0087C68.271 45.3914 68.6109 45.823 68.805 46.2392C69.2237 47.1337 69.4186 48.1248 69.8066 49.0192C69.9505 49.3556 70.1781 49.7383 70.3875 50.0417C70.565 50.2825 70.8878 50.4566 70.9854 50.7615C71.18 51.0811 70.6941 52.1356 70.5816 52.4706C70.1607 53.781 70.2423 55.6026 70.7269 56.7385L70.7527 56.7984L70.7786 56.8591C70.9555 57.2752 71.1449 57.7232 71.6154 57.8395C71.6478 57.8077 71.6154 57.8244 71.6796 57.8077C71.7935 56.9285 71.8255 56.0818 72.1327 55.3939C72.3102 54.9638 72.6647 54.6597 72.9077 54.3086C73.0697 54.4042 73.0697 54.6927 73.1662 54.8835C73.3764 55.3786 73.6022 55.9213 73.8614 56.4178C74.3934 57.4403 74.992 58.4316 75.6702 59.3261C75.8973 59.6456 76.2196 59.9972 76.5103 60.285C76.6397 60.3964 76.7847 60.4608 76.882 60.6041H76.9138V60.6524C76.4291 60.4762 76.1219 59.9816 75.7354 59.6928C75.0077 59.1501 74.1362 58.335 73.6346 57.5529C73.4248 57.1038 73.198 56.6735 72.9719 56.2267V56.1944C72.8753 56.3221 72.9077 56.4488 72.8593 56.6419C72.6495 57.4403 72.8111 58.3512 72.0841 58.6384C71.2601 58.9747 70.6455 58.0956 70.3875 57.6961C69.5633 56.3701 69.3375 54.1331 69.9188 52.3274C70.0479 51.9277 70.0655 51.4483 70.2909 51.1291C70.2422 50.8406 70.0167 50.7617 69.8864 50.5849C69.6603 50.2828 69.4667 49.9308 69.2896 49.5952C68.9495 48.9397 68.7076 48.1564 68.4494 47.4534C68.3359 47.1663 68.3034 46.8781 68.1902 46.6064C67.9972 46.1916 67.6414 45.7754 67.3669 45.4084C66.9952 44.881 65.9127 43.8587 66.349 42.8195V42.8195ZM71.6474 45.9501C71.6906 45.9928 71.7427 46.0301 71.7966 46.0668L71.8616 46.1109C71.9483 46.1701 72.0323 46.2325 72.0837 46.3174C72.1652 46.4298 72.1804 46.5408 72.2781 46.6534C72.2781 47.0375 72.1652 47.2928 71.9374 47.452C71.9374 47.452 71.9219 47.4687 71.9059 47.4844C71.7768 47.2284 71.6636 46.9737 71.5336 46.7179C71.3734 46.4946 71.147 46.3175 71.0165 46.0624H70.9851V46.0303C71.18 45.9828 71.3734 45.9501 71.6474 45.9501Z" fill="#00758F"/>
</g>
<defs>
<filter id="filter0_d_109_1451" x="0" y="0" width="122" height="122" filterUnits="userSpaceOnUse" color-interpolation-filters="sRGB">
<feFlood flood-opacity="0" result="BackgroundImageFix"/>
<feColorMatrix in="SourceAlpha" type="matrix" values="0 0 0 0 0 0 0 0 0 0 0 0 0 0 0 0 0 0 127 0" result="hardAlpha"/>
<feMorphology radius="1" operator="dilate" in="SourceAlpha" result="effect1_dropShadow_109_1451"/>
<feOffset/>
<feGaussianBlur stdDeviation="5"/>
<feComposite in2="hardAlpha" operator="out"/>
<feColorMatrix type="matrix" values="0 0 0 0 0 0 0 0 0 0 0 0 0 0 0 0 0 0 0.05 0"/>
<feBlend mode="normal" in2="BackgroundImageFix" result="effect1_dropShadow_109_1451"/>
<feBlend mode="normal" in="SourceGraphic" in2="effect1_dropShadow_109_1451" result="shape"/>
</filter>
<clipPath id="clip0_109_1451">
<rect width="58" height="39" fill="white" transform="translate(32 42)"/>
</clipPath>
</defs>
</svg>
