<svg width="122" height="122" viewBox="0 0 122 122" fill="none" xmlns="http://www.w3.org/2000/svg">
<g filter="url(#filter0_d_68_828)">
<circle cx="61" cy="61" r="50" fill="white"/>
</g>
<g clip-path="url(#clip0_68_828)">
<path d="M59.4444 29.9355C59.3128 29.9475 58.8935 29.9894 58.5161 30.0193C49.8151 30.8037 41.6647 35.4979 36.5028 42.7128C33.6283 46.7245 31.79 51.275 31.0953 56.0951C30.8497 57.7773 30.8198 58.2744 30.8198 60.5556C30.8198 62.8369 30.8497 63.3339 31.0953 65.0162C32.7601 76.5183 40.9461 86.1822 52.0485 89.7627C54.0369 90.4035 56.1327 90.8405 58.5161 91.1039C59.4444 91.2057 63.4565 91.2057 64.3848 91.1039C68.4988 90.6488 71.984 89.631 75.4214 87.8767C75.9483 87.6073 76.0503 87.5355 75.9782 87.4754C75.9304 87.4395 73.6848 84.4279 70.99 80.7874L66.0915 74.1712L59.9534 65.0883C56.5759 60.0945 53.7973 56.0111 53.7734 56.0111C53.7495 56.0051 53.7256 60.0409 53.7136 64.9684C53.6954 73.5964 53.6897 73.9436 53.5817 74.1473C53.4262 74.4406 53.3063 74.5605 53.0548 74.6922C52.8631 74.7879 52.6954 74.8058 51.7913 74.8058H50.7551L50.4799 74.6323C50.3092 74.5253 50.1706 74.3743 50.0786 74.1951L49.9527 73.9257L49.9647 61.9209L49.9826 49.9098L50.1683 49.6763C50.2641 49.5506 50.4677 49.3891 50.6115 49.3111C50.857 49.1914 50.9528 49.1795 51.9887 49.1795C53.2103 49.1795 53.414 49.2273 53.7313 49.5746C53.8213 49.6703 57.1447 54.676 61.1209 60.7054C65.0974 66.7346 70.5351 74.9676 73.2057 79.0092L78.0563 86.3557L78.3018 86.1942C80.4757 84.7811 82.7751 82.7693 84.5955 80.6735C88.47 76.2249 90.9671 70.8004 91.8056 65.0165C92.0512 63.3339 92.0811 62.8369 92.0811 60.5559C92.0811 58.2744 92.0512 57.7776 91.8056 56.0951C90.1408 44.593 81.9548 34.929 70.8524 31.3486C68.8939 30.714 66.8101 30.2768 64.4745 30.0133C63.8997 29.9535 59.9414 29.8877 59.4444 29.9355V29.9355ZM71.984 48.4608C72.2714 48.6044 72.505 48.8801 72.5888 49.1675C72.6366 49.3231 72.6486 52.6522 72.6366 60.1546L72.6189 70.92L70.7205 68.0101L68.8162 65.1002V57.2746C68.8162 52.215 68.8401 49.3709 68.876 49.2333C68.9717 48.8981 69.1816 48.6346 69.469 48.4788C69.7145 48.3532 69.8042 48.3412 70.7445 48.3412C71.6308 48.3412 71.7864 48.3532 71.984 48.4608Z" fill="black"/>
</g>
<defs>
<filter id="filter0_d_68_828" x="0" y="0" width="122" height="122" filterUnits="userSpaceOnUse" color-interpolation-filters="sRGB">
<feFlood flood-opacity="0" result="BackgroundImageFix"/>
<feColorMatrix in="SourceAlpha" type="matrix" values="0 0 0 0 0 0 0 0 0 0 0 0 0 0 0 0 0 0 127 0" result="hardAlpha"/>
<feMorphology radius="1" operator="dilate" in="SourceAlpha" result="effect1_dropShadow_68_828"/>
<feOffset/>
<feGaussianBlur stdDeviation="5"/>
<feComposite in2="hardAlpha" operator="out"/>
<feColorMatrix type="matrix" values="0 0 0 0 0 0 0 0 0 0 0 0 0 0 0 0 0 0 0.05 0"/>
<feBlend mode="normal" in2="BackgroundImageFix" result="effect1_dropShadow_68_828"/>
<feBlend mode="normal" in="SourceGraphic" in2="effect1_dropShadow_68_828" result="shape"/>
</filter>
<clipPath id="clip0_68_828">
<rect width="61.2613" height="61.2613" fill="white" transform="translate(30.8198 29.9189)"/>
</clipPath>
</defs>
</svg>
