<svg width="122" height="122" viewBox="0 0 122 122" fill="none" xmlns="http://www.w3.org/2000/svg">
<g filter="url(#filter0_d_109_1462)">
<circle cx="61" cy="61" r="50" fill="white"/>
</g>
<path d="M86.7987 66.7369C86.4869 65.8036 85.6701 65.1535 84.6139 64.9975C84.1158 64.9241 83.5454 64.9554 82.8704 65.0929C81.6939 65.3328 80.8211 65.4242 80.1841 65.4418C82.5885 61.4297 84.5436 56.8544 85.6691 52.5476C87.4891 45.5835 86.5165 42.4109 85.38 40.9759C82.3724 37.1776 77.9843 35.1371 72.6904 35.0746C69.8664 35.0405 67.3872 35.5916 66.0939 35.9879C64.8898 35.7779 63.5951 35.6606 62.2366 35.639C59.69 35.5988 57.44 36.1475 55.5174 37.2751C54.453 36.9194 52.7448 36.4179 50.772 36.0979C46.1322 35.3451 42.3927 35.9317 39.6574 37.8415C36.3453 40.1538 34.8098 44.1714 35.0938 49.7825C35.184 51.5641 36.1923 56.9845 37.7799 62.1251C38.6924 65.0799 39.6653 67.5335 40.6718 69.4186C42.0992 72.0917 43.6265 73.6659 45.3411 74.2312C46.302 74.5476 48.0481 74.7692 49.8846 73.2575C50.1173 73.5362 50.4279 73.813 50.8401 74.0702C51.3635 74.3964 52.0036 74.663 52.6428 74.821C54.9464 75.3902 57.1042 75.2478 58.9452 74.45C58.9565 74.7736 58.9653 75.0828 58.9726 75.3498C58.9848 75.7828 58.997 76.2075 59.013 76.6045C59.1221 79.2895 59.3069 81.3772 59.8545 82.8379C59.8846 82.9182 59.925 83.0406 59.9677 83.1705C60.2409 83.9972 60.6977 85.3813 61.86 86.4652C63.0635 87.588 64.5193 87.9323 65.8526 87.9323C66.5213 87.9323 67.1593 87.8456 67.7189 87.7271C69.7136 87.3045 71.9791 86.6609 73.6179 84.3546C75.1673 82.1744 75.9205 78.8906 76.0568 73.7165C76.0745 73.5701 76.0907 73.4304 76.1064 73.2973L76.1389 73.0238L76.5039 73.0556L76.5979 73.0618C78.6296 73.1533 81.1138 72.7275 82.6395 72.0271C83.845 71.4742 87.7083 69.4584 86.7987 66.7369" fill="black"/>
<path d="M83.3246 67.2661C77.2837 68.4978 76.8683 66.4764 76.8683 66.4764C83.2464 57.1225 85.9128 45.2491 83.612 42.3431C77.3347 34.4162 66.4685 38.1651 66.2871 38.2623L66.2288 38.2727C65.0352 38.0278 63.6997 37.8821 62.1984 37.8578C59.4651 37.8136 57.3916 38.566 55.8182 39.7453C55.8182 39.7453 36.434 31.8527 37.3357 49.6715C37.5274 53.4623 42.8331 78.3544 49.1612 70.8358C51.4742 68.0864 53.7092 65.7619 53.7092 65.7619C54.8191 66.4906 56.1479 66.8624 57.5409 66.7289L57.6492 66.6382C57.6155 66.9795 57.6309 67.3133 57.6925 67.7086C56.0622 69.5088 56.5414 69.8248 53.2824 70.4879C49.9847 71.1596 51.9219 72.3554 53.1867 72.6681C54.7201 73.047 58.2675 73.5838 60.6644 70.2675L60.5689 70.6459C61.2075 71.1516 61.656 73.9349 61.5809 76.4582C61.5057 78.9814 61.4556 80.7137 61.9587 82.0668C62.4622 83.4199 62.9638 86.4644 67.2481 85.5572C70.8277 84.7989 72.6829 82.8341 72.9411 79.5565C73.1241 77.2265 73.5387 77.571 73.5647 75.4878L73.8972 74.5016C74.2805 71.3431 73.9581 70.3241 76.1634 70.7981L76.6997 70.8446C78.3227 70.9175 80.4473 70.5865 81.6943 70.0137C84.3792 68.7823 85.9717 66.7259 83.3242 67.2661H83.3246" fill="#336791"/>
<path d="M56.953 51.3667C56.4087 51.2918 55.9157 51.3611 55.6663 51.5478C55.5261 51.6528 55.4826 51.7744 55.4708 51.8582C55.4396 52.08 55.5968 52.3253 55.6935 52.4518C55.9669 52.81 56.3662 53.0561 56.7615 53.1103C56.8188 53.1183 56.8759 53.1219 56.9325 53.1219C57.5917 53.1219 58.1911 52.6146 58.2439 52.2402C58.3099 51.7712 57.6211 51.4587 56.953 51.3669M74.9873 51.3816C74.9353 51.014 74.2735 50.9092 73.6455 50.9955C73.0182 51.0818 72.41 51.3617 72.4608 51.7301C72.5015 52.0166 73.0249 52.5056 73.6444 52.5056C73.6968 52.5056 73.7497 52.5022 73.8029 52.4948C74.2164 52.4382 74.5199 52.1786 74.6641 52.029C74.8835 51.8009 75.0107 51.5468 74.9873 51.3816" fill="white"/>
<path d="M85.335 67.1262C85.1047 66.4378 84.3633 66.2164 83.1315 66.4677C79.4742 67.2138 78.1645 66.697 77.7345 66.384C80.5772 62.1039 82.9158 56.93 84.1774 52.1027C84.775 49.8161 85.1051 47.6925 85.1321 45.9616C85.1619 44.0618 84.8345 42.6657 84.1593 41.8129C81.437 38.3749 77.4416 36.5308 72.6052 36.4802C69.2802 36.4432 66.471 37.2842 65.9264 37.5207C64.7796 37.2388 63.5293 37.0658 62.1682 37.0437C59.6722 37.0038 57.5146 37.5944 55.7283 38.7983C54.9524 38.5129 52.9471 37.8325 50.4948 37.442C46.2552 36.7675 42.8862 37.2786 40.482 38.9619C37.6132 40.9707 36.2889 44.5615 36.5454 49.6342C36.6317 51.3409 37.6157 56.5911 39.1684 61.619C41.2122 68.2368 43.434 71.9832 45.7715 72.7539C46.0452 72.844 46.3606 72.907 46.7086 72.907C47.5613 72.907 48.6068 72.5272 49.6945 71.2347C51.0212 69.6617 52.3936 68.1269 53.81 66.6322C54.7289 67.1196 55.7385 67.3918 56.771 67.4191C56.773 67.4458 56.7756 67.4725 56.7781 67.499C56.6003 67.7085 56.4263 67.921 56.256 68.1364C55.5406 69.034 55.3917 69.2209 53.0889 69.6895C52.4338 69.8232 50.6941 70.1775 50.6685 71.3829C50.6409 72.6999 52.7251 73.2529 52.9626 73.3116C53.7901 73.5163 54.5874 73.6173 55.3477 73.6173C57.1967 73.6173 58.824 73.0167 60.1244 71.8545C60.0843 76.5494 60.2824 81.1756 60.8528 82.5852C61.32 83.7391 62.4611 86.5592 66.0658 86.559C66.5947 86.559 67.1769 86.4981 67.8173 86.3624C71.5794 85.5654 73.2131 83.922 73.845 80.2989C74.1832 78.3626 74.7636 73.739 75.0366 71.2588C75.6126 71.4365 76.3542 71.5178 77.156 71.5176C78.8281 71.5176 80.7576 71.1665 81.9676 70.6114C83.3269 69.9874 85.7799 68.4564 85.335 67.1262V67.1262ZM76.376 50.367C76.3636 51.0991 76.2616 51.7639 76.1536 52.4577C76.0372 53.2039 75.9169 53.9754 75.8867 54.9119C75.8568 55.8234 75.972 56.771 76.0833 57.6874C76.3083 59.5384 76.5393 61.444 75.6453 63.3243C75.4968 63.0642 75.3646 62.7954 75.2492 62.5194C75.1381 62.2532 74.8968 61.8256 74.5627 61.2338C73.2629 58.9299 70.2191 53.5347 71.7772 51.3332C72.2414 50.678 73.4193 50.0042 76.376 50.367V50.367ZM72.792 37.9628C77.1255 38.0573 80.5535 39.6596 82.9804 42.7247C84.8418 45.0758 82.7921 55.7736 76.8582 65.0026C76.7985 64.9276 76.7385 64.8529 76.6782 64.7784L76.6031 64.6856C78.1365 62.1828 77.8367 59.7064 77.5697 57.5109C77.4601 56.6099 77.3565 55.7589 77.3829 54.9595C77.4101 54.1123 77.5234 53.3856 77.6331 52.6829C77.7678 51.8171 77.9049 50.9211 77.8671 49.8649C77.8954 49.7541 77.9067 49.6232 77.8919 49.4678C77.7954 48.455 76.6254 45.4237 74.2407 42.6802C72.9363 41.1795 71.034 39.5002 68.4366 38.3675C69.5538 38.1386 71.0815 37.9252 72.792 37.9628V37.9628ZM48.5434 70.2888C47.345 71.7129 46.5174 71.4399 46.2452 71.3504C44.472 70.7658 42.4143 67.0614 40.6002 61.1872C39.0304 56.1044 38.1131 50.9934 38.0404 49.5601C37.8113 45.0274 38.923 41.8685 41.3448 40.1709C45.2863 37.4085 51.7664 39.0619 54.3702 39.9005C54.3329 39.937 54.2939 39.9712 54.2569 40.0083C49.984 44.2732 50.0853 51.5599 50.0959 52.0054C50.0955 52.1772 50.1101 52.4205 50.13 52.7552C50.2035 53.9808 50.3404 56.2618 49.9748 58.845C49.6352 61.2454 50.3839 63.5949 52.0286 65.2911C52.1974 65.4648 52.3748 65.6302 52.5602 65.7866C51.8281 66.5615 50.237 68.2752 48.5434 70.2888V70.2888ZM53.1094 64.2674C51.7838 62.9003 51.1818 60.9987 51.4574 59.0498C51.8434 56.3211 51.701 53.9445 51.6244 52.6677C51.6136 52.489 51.6041 52.3324 51.5986 52.2089C52.2228 51.6619 55.1155 50.1301 57.1784 50.5973C58.1197 50.8103 58.6933 51.4438 58.9318 52.5336C60.166 58.1755 59.0951 60.5269 58.2347 62.4167C58.0574 62.8059 57.8898 63.1739 57.7468 63.5545L57.6359 63.8489C57.3552 64.5929 57.0939 65.2847 56.932 65.9416C55.5228 65.9375 54.1519 65.3425 53.1094 64.2672V64.2674ZM53.3258 71.8762C52.9142 71.7746 52.5441 71.5981 52.327 71.4518C52.5084 71.3674 52.8312 71.2526 53.391 71.1386C56.1 70.5875 56.5185 70.1984 57.4321 69.0519C57.6416 68.7889 57.879 68.491 58.2079 68.128L58.2083 68.1276C58.698 67.5856 58.9221 67.6775 59.3283 67.8441C59.6576 67.9786 59.9783 68.3866 60.1083 68.8355C60.1699 69.0475 60.2389 69.4498 60.0128 69.763C58.1043 72.4041 55.3231 72.3702 53.3258 71.8762V71.8762ZM67.5037 84.9158C64.1895 85.6176 63.016 83.9463 62.2427 82.0357C61.7437 80.8022 61.4983 75.24 61.6724 69.0975C61.6746 69.0158 61.6628 68.9369 61.6401 68.8626C61.6197 68.7159 61.5888 68.5708 61.5475 68.4285C61.2887 67.5348 60.658 66.7872 59.9013 66.4772C59.6007 66.3541 59.049 66.1283 58.386 66.2959C58.5274 65.7201 58.7726 65.0699 59.0385 64.3658L59.15 64.0697C59.2755 63.7358 59.4331 63.3899 59.5997 63.0237C60.5001 61.0467 61.7333 58.3387 60.3949 52.221C59.8936 49.9295 58.2195 48.8105 55.6816 49.0705C54.1602 49.2261 52.7682 49.8328 52.0739 50.1807C51.9246 50.2554 51.7881 50.3276 51.6605 50.3979C51.8543 48.0892 52.5864 43.7745 55.3249 41.0446C57.0492 39.3261 59.3456 38.4773 62.1434 38.5231C67.6562 38.6122 71.1914 41.4084 73.1865 43.7386C74.9058 45.7464 75.8367 47.769 76.2082 48.8599C73.4142 48.579 71.514 49.1241 70.5508 50.4852C68.4551 53.446 71.6972 59.1925 73.2554 61.9543C73.5412 62.4604 73.7878 62.8979 73.8654 63.0838C74.3728 64.2992 75.0297 65.1106 75.5092 65.7029C75.6563 65.8843 75.7989 66.0604 75.9074 66.2142C75.0612 66.4553 73.5412 67.0124 73.6797 69.7971C73.568 71.1944 72.7736 77.7363 72.37 80.0476C71.8372 83.1011 70.7003 84.2384 67.5037 84.916V84.9158ZM81.3373 69.2695C80.472 69.6664 79.0239 69.9641 77.6484 70.0282C76.129 70.0984 75.3555 69.8599 75.1735 69.7132C75.0882 67.9778 75.7416 67.7966 76.4333 67.6046C76.5419 67.5745 76.648 67.545 76.7503 67.5097C76.8139 67.5609 76.8836 67.6117 76.96 67.6614C78.1812 68.4581 80.3593 68.544 83.4344 67.9166L83.4681 67.91C83.0533 68.2932 82.3436 68.8076 81.3373 69.2695Z" fill="white"/>
<defs>
<filter id="filter0_d_109_1462" x="0" y="0" width="122" height="122" filterUnits="userSpaceOnUse" color-interpolation-filters="sRGB">
<feFlood flood-opacity="0" result="BackgroundImageFix"/>
<feColorMatrix in="SourceAlpha" type="matrix" values="0 0 0 0 0 0 0 0 0 0 0 0 0 0 0 0 0 0 127 0" result="hardAlpha"/>
<feMorphology radius="1" operator="dilate" in="SourceAlpha" result="effect1_dropShadow_109_1462"/>
<feOffset/>
<feGaussianBlur stdDeviation="5"/>
<feComposite in2="hardAlpha" operator="out"/>
<feColorMatrix type="matrix" values="0 0 0 0 0 0 0 0 0 0 0 0 0 0 0 0 0 0 0.05 0"/>
<feBlend mode="normal" in2="BackgroundImageFix" result="effect1_dropShadow_109_1462"/>
<feBlend mode="normal" in="SourceGraphic" in2="effect1_dropShadow_109_1462" result="shape"/>
</filter>
</defs>
</svg>
