<svg width="122" height="122" viewBox="0 0 122 122" fill="none" xmlns="http://www.w3.org/2000/svg">
<g filter="url(#filter0_d_68_792)">
<circle cx="61" cy="61" r="50" fill="white"/>
</g>
<path d="M80.5098 52.5134C79.8819 52.3043 79.2486 52.1106 78.6107 51.9325C78.7179 51.5075 78.8165 51.0876 78.9041 50.6752C80.3417 43.9018 79.4019 38.445 76.1917 36.6484C73.1138 34.926 68.0801 36.722 62.9964 41.016C62.4954 41.44 62.0055 41.8762 61.5272 42.3241C61.207 42.0263 60.8811 41.7341 60.5498 41.448C55.2218 36.8566 49.8814 34.9215 46.6746 36.7233C43.5995 38.4511 42.6889 43.5808 43.9832 50.0001C44.112 50.6359 44.2574 51.2683 44.4193 51.8969C43.6633 52.1054 42.9339 52.3273 42.2358 52.5635C35.9892 54.6773 32 57.9899 32 61.4259C32 64.9746 36.2826 68.5341 42.7887 70.6925C43.3162 70.8667 43.848 71.0282 44.3838 71.1767C44.2098 71.8538 44.0553 72.5354 43.9205 73.2208C42.6866 79.5287 43.6502 84.5372 46.717 86.2539C49.8846 88.0269 55.2011 86.2047 60.3776 81.8127C60.7974 81.4556 61.2079 81.0884 61.6088 80.7115C62.1268 81.1966 62.6586 81.6675 63.2036 82.1238C68.2182 86.3117 73.1705 88.0027 76.2343 86.2812C79.3989 84.5032 80.4275 79.1227 79.0921 72.5765C78.9869 72.0637 78.869 71.5534 78.7384 71.0461C79.1117 70.9387 79.4782 70.8282 79.8354 70.7133C86.5992 68.5384 91 65.0221 91 61.4259C91 57.9773 86.882 54.6424 80.5098 52.5134V52.5134ZM79.0428 68.3914C78.7202 68.495 78.3892 68.595 78.0518 68.6923C77.3051 66.3979 76.2975 63.9584 75.0642 61.4377C76.241 58.9772 77.2099 56.5688 77.9356 54.2895C78.5392 54.459 79.1249 54.6377 79.6895 54.8263C85.1493 56.6507 88.4796 59.3476 88.4796 61.4259C88.4796 63.6395 84.8829 66.5131 79.0428 68.3914V68.3914ZM76.6197 73.0517C77.2101 75.9461 77.2943 78.5632 76.9031 80.6093C76.5519 82.4477 75.8453 83.6733 74.9714 84.1643C73.1122 85.2089 69.1359 83.8511 64.8476 80.2695C64.3406 79.8452 63.8459 79.4074 63.364 78.9565C65.0266 77.1918 66.6881 75.1404 68.3097 72.862C71.1619 72.6164 73.8566 72.2146 76.3002 71.6664C76.418 72.1256 76.5245 72.5875 76.6197 73.0517V73.0517ZM52.1144 83.9838C50.2978 84.6063 48.851 84.6242 47.9763 84.1348C46.1153 83.0931 45.3416 79.0714 46.3969 73.6771C46.5224 73.0396 46.666 72.4057 46.8277 71.776C49.2444 72.2949 51.9194 72.668 54.7784 72.8931C56.411 75.1225 58.1204 77.1717 59.8432 78.9661C59.477 79.3099 59.1023 79.645 58.7192 79.9709C56.4299 81.9129 54.1361 83.2908 52.1144 83.9838V83.9838ZM43.6041 68.3778C40.7272 67.4233 38.3513 66.183 36.7228 64.8295C35.2593 63.6133 34.5206 62.4056 34.5206 61.4259C34.5206 59.3407 37.7235 56.6811 43.0655 54.8735C43.7138 54.6543 44.3923 54.4474 45.0964 54.2532C45.8348 56.584 46.8032 59.0211 47.9719 61.4854C46.788 63.9862 45.8058 66.4621 45.0602 68.8204C44.5712 68.6845 44.0857 68.5369 43.6041 68.3778V68.3778ZM46.4568 49.5301C45.3481 44.0304 46.0844 39.8817 47.9376 38.8405C49.9113 37.7315 54.276 39.3127 58.8763 43.2773C59.1763 43.5364 59.4715 43.8007 59.7616 44.0702C58.0473 45.8568 56.3536 47.8908 54.7355 50.107C51.9607 50.3566 49.3045 50.7575 46.8625 51.2946C46.712 50.7099 46.5768 50.1216 46.4568 49.5304V49.5301ZM71.9068 55.6296C71.33 54.6626 70.7318 53.7077 70.1126 52.7657C71.9951 52.9968 73.7987 53.3035 75.4924 53.6784C74.984 55.2603 74.3502 56.914 73.6042 58.6095C73.0589 57.6053 72.493 56.6118 71.9068 55.6296V55.6296ZM61.5283 45.8185C62.6908 47.041 63.8552 48.4057 65.0004 49.8865C62.6772 49.78 60.3502 49.7795 58.0271 49.8851C59.1734 48.418 60.3477 47.0551 61.5283 45.8185ZM51.0833 55.6463C50.5044 56.6207 49.9491 57.608 49.4177 58.6075C48.6839 56.918 48.0558 55.2567 47.543 53.6524C49.2264 53.2869 51.0215 52.9881 52.892 52.7613C52.2659 53.709 51.6628 54.6709 51.0833 55.6461V55.6463ZM52.9457 70.2645C51.0132 70.0552 49.1911 69.7718 47.5082 69.4161C48.0291 67.7832 48.671 66.0866 49.4207 64.3608C49.9542 65.3611 50.5118 66.349 51.0932 67.3238C51.691 68.3259 52.3101 69.3074 52.9457 70.2645ZM61.5979 77.2055C60.4032 75.9546 59.2117 74.5707 58.048 73.0823C59.1778 73.1252 60.3294 73.1472 61.5 73.1472C62.7026 73.1472 63.8913 73.121 65.0614 73.0704C63.9125 74.5857 62.7526 75.9716 61.5979 77.2055ZM73.628 64.2727C74.4166 66.0175 75.0813 67.7051 75.6091 69.3101C73.8985 69.689 72.0516 69.9941 70.1055 70.2207C70.7291 69.2612 71.3329 68.2898 71.9167 67.307C72.5103 66.308 73.0808 65.2963 73.628 64.2727V64.2727ZM69.7335 66.0848C68.8398 67.5916 67.8958 69.0698 66.9031 70.5171C65.1049 70.6407 63.3027 70.7021 61.5 70.7012C59.6639 70.7012 57.878 70.6457 56.1582 70.5374C55.1396 69.0935 54.1776 67.6127 53.2743 66.0982H53.2746C52.3756 64.5917 51.5358 63.0526 50.7572 61.4843C51.5338 59.9155 52.371 58.3757 53.267 56.8681L53.2667 56.8683C54.1623 55.3603 55.1166 53.8858 56.1275 52.4481C57.8821 52.3193 59.6814 52.2521 61.4998 52.2521H61.5C63.3267 52.2521 65.1283 52.3199 66.8824 52.4497C67.8831 53.8852 68.8313 55.3546 69.7252 56.8551C70.6241 58.3594 71.4724 59.8917 72.2687 61.4496C71.4806 63.0234 70.635 64.5694 69.7335 66.0848V66.0848ZM74.9329 38.7676C76.9084 39.8735 77.6768 44.3331 76.4355 50.1813C76.3562 50.5544 76.2673 50.9344 76.1705 51.3198C73.7224 50.7714 71.0645 50.3636 68.2815 50.1101C66.6604 47.8695 64.9805 45.8324 63.2942 44.0689C63.7362 43.6554 64.1886 43.2526 64.6512 42.861C69.0071 39.1821 73.0781 37.7294 74.9329 38.7676V38.7676ZM61.5 56.3125C64.4097 56.3125 66.7685 58.6019 66.7685 61.4259C66.7685 64.2499 64.4097 66.5393 61.5 66.5393C58.5903 66.5393 56.2315 64.2499 56.2315 61.4259C56.2315 58.6019 58.5903 56.3125 61.5 56.3125V56.3125Z" fill="#00D8FF"/>
<defs>
<filter id="filter0_d_68_792" x="0" y="0" width="122" height="122" filterUnits="userSpaceOnUse" color-interpolation-filters="sRGB">
<feFlood flood-opacity="0" result="BackgroundImageFix"/>
<feColorMatrix in="SourceAlpha" type="matrix" values="0 0 0 0 0 0 0 0 0 0 0 0 0 0 0 0 0 0 127 0" result="hardAlpha"/>
<feMorphology radius="1" operator="dilate" in="SourceAlpha" result="effect1_dropShadow_68_792"/>
<feOffset/>
<feGaussianBlur stdDeviation="5"/>
<feComposite in2="hardAlpha" operator="out"/>
<feColorMatrix type="matrix" values="0 0 0 0 0 0 0 0 0 0 0 0 0 0 0 0 0 0 0.05 0"/>
<feBlend mode="normal" in2="BackgroundImageFix" result="effect1_dropShadow_68_792"/>
<feBlend mode="normal" in="SourceGraphic" in2="effect1_dropShadow_68_792" result="shape"/>
</filter>
</defs>
</svg>
