<svg width="122" height="122" viewBox="0 0 122 122" fill="none" xmlns="http://www.w3.org/2000/svg">
<g filter="url(#filter0_d_109_1425)">
<circle cx="61" cy="61" r="50" fill="white"/>
</g>
<path d="M61 44C53.5334 44 48.8666 47.768 47 55.3039C49.8 51.5359 53.0666 50.1229 56.8 51.0649C58.93 51.6023 60.4525 53.1621 62.1377 54.8884C64.883 57.7009 68.0602 60.9558 75 60.9558C82.4666 60.9558 87.1334 57.1878 89 49.6519C86.2 53.42 82.9334 54.833 79.2 53.8909C77.07 53.3535 75.5475 51.7937 73.8623 50.0675C71.117 47.2549 67.9398 44 61 44ZM47 60.9558C39.5334 60.9558 34.8666 64.7239 33 72.2597C35.8 68.4917 39.0666 67.0787 42.8 68.0208C44.93 68.5582 46.4525 70.118 48.1377 71.8442C50.883 74.6567 54.0602 77.9117 61 77.9117C68.4666 77.9117 73.1334 74.1437 75 66.6078C72.2 70.3758 68.9334 71.7888 65.2 70.8468C63.07 70.3094 61.5475 68.7496 59.8623 67.0233C57.117 64.2108 53.9398 60.9558 47 60.9558Z" fill="url(#paint0_linear_109_1425)"/>
<defs>
<filter id="filter0_d_109_1425" x="0" y="0" width="122" height="122" filterUnits="userSpaceOnUse" color-interpolation-filters="sRGB">
<feFlood flood-opacity="0" result="BackgroundImageFix"/>
<feColorMatrix in="SourceAlpha" type="matrix" values="0 0 0 0 0 0 0 0 0 0 0 0 0 0 0 0 0 0 127 0" result="hardAlpha"/>
<feMorphology radius="1" operator="dilate" in="SourceAlpha" result="effect1_dropShadow_109_1425"/>
<feOffset/>
<feGaussianBlur stdDeviation="5"/>
<feComposite in2="hardAlpha" operator="out"/>
<feColorMatrix type="matrix" values="0 0 0 0 0 0 0 0 0 0 0 0 0 0 0 0 0 0 0.05 0"/>
<feBlend mode="normal" in2="BackgroundImageFix" result="effect1_dropShadow_109_1425"/>
<feBlend mode="normal" in="SourceGraphic" in2="effect1_dropShadow_109_1425" result="shape"/>
</filter>
<linearGradient id="paint0_linear_109_1425" x1="31.4443" y1="54.8517" x2="80.0313" y2="82.6086" gradientUnits="userSpaceOnUse">
<stop stop-color="#2298BD"/>
<stop offset="1" stop-color="#0ED7B5"/>
</linearGradient>
</defs>
</svg>
