<svg width="122" height="122" viewBox="0 0 122 122" fill="none" xmlns="http://www.w3.org/2000/svg">
<g filter="url(#filter0_d_109_1419)">
<circle cx="61" cy="61" r="50" fill="#FFFCFD"/>
</g>
<path d="M36 61.5V87H87V36H36V61.5Z" fill="#007ACC"/>
<path d="M47.2783 61.6694L47.2622 63.7578H53.9002V82.6198H58.5954V63.7578H65.2335V61.7098C65.2335 60.5762 65.2092 59.6292 65.177 59.6049C65.1526 59.5726 61.1129 59.5562 56.2155 59.5644L47.3024 59.5887L47.2783 61.6692V61.6694ZM77.1522 59.5294C78.4473 59.8531 79.435 60.4278 80.3417 61.3669C80.8112 61.869 81.5073 62.7836 81.5641 63.0021C81.58 63.0669 79.3621 64.5564 78.0184 65.3904C77.9698 65.4226 77.7754 65.2123 77.5568 64.8883C76.9012 63.9331 76.2131 63.5203 75.1606 63.4474C73.6147 63.3422 72.6188 64.1516 72.6269 65.5035C72.6269 65.9004 72.6835 66.135 72.8455 66.4588C73.1855 67.1632 73.8169 67.5842 75.8003 68.4422C79.4512 70.0126 81.0135 71.0488 81.985 72.5222C83.0698 74.1656 83.3126 76.7885 82.5759 78.7394C81.7665 80.8603 79.759 82.3013 76.9334 82.7788C76.0593 82.9326 73.987 82.9083 73.0479 82.7383C70.9999 82.3742 69.0569 81.3621 67.8588 80.0345C67.3893 79.5166 66.4745 78.1645 66.5312 78.0675C66.5555 78.035 66.7659 77.9055 67.0006 77.7678C67.2273 77.6383 68.0855 77.1445 68.895 76.6751L70.3602 75.825L70.6678 76.2785C71.0969 76.9339 72.0359 77.8326 72.6026 78.1322C74.2297 78.9902 76.4641 78.8689 77.565 77.8812C78.0345 77.4523 78.2288 77.007 78.2288 76.3512C78.2288 75.7603 78.1559 75.5013 77.8483 75.0561C77.4518 74.4893 76.6422 74.0118 74.343 73.0161C71.7121 71.8825 70.5788 71.1785 69.5426 70.0612C68.9436 69.4138 68.3768 68.3775 68.1421 67.5112C67.9479 66.7907 67.8991 64.9856 68.0531 64.257C68.5955 61.715 70.514 59.9421 73.2826 59.416C74.181 59.2461 76.2697 59.3108 77.1522 59.5294V59.5294Z" fill="white"/>
<defs>
<filter id="filter0_d_109_1419" x="0" y="0" width="122" height="122" filterUnits="userSpaceOnUse" color-interpolation-filters="sRGB">
<feFlood flood-opacity="0" result="BackgroundImageFix"/>
<feColorMatrix in="SourceAlpha" type="matrix" values="0 0 0 0 0 0 0 0 0 0 0 0 0 0 0 0 0 0 127 0" result="hardAlpha"/>
<feMorphology radius="1" operator="dilate" in="SourceAlpha" result="effect1_dropShadow_109_1419"/>
<feOffset/>
<feGaussianBlur stdDeviation="5"/>
<feComposite in2="hardAlpha" operator="out"/>
<feColorMatrix type="matrix" values="0 0 0 0 0 0 0 0 0 0 0 0 0 0 0 0 0 0 0.05 0"/>
<feBlend mode="normal" in2="BackgroundImageFix" result="effect1_dropShadow_109_1419"/>
<feBlend mode="normal" in="SourceGraphic" in2="effect1_dropShadow_109_1419" result="shape"/>
</filter>
</defs>
</svg>
