<svg width="58" height="58" viewBox="0 0 58 58" fill="none" xmlns="http://www.w3.org/2000/svg">
<path d="M14.5 28.0494V43.5H29.9506L26.7283 40.2778H17.7222V31.2717L14.5 28.0494Z" fill="#EA4638"/>
<path d="M56.1794 52.0228L51.5555 47.3344V51.5556H6.44442V44.8695H9.66664V42.2917H6.44442V31.5778H9.66664V29H6.44442V18.6889H9.66664V16.1111H6.44442V7.105L32.1255 32.6411V28.0978L5.9772 2.07834C5.75185 1.85112 5.46394 1.69617 5.15018 1.63322C4.83642 1.57028 4.51102 1.60219 4.21548 1.72491C3.91993 1.84762 3.66762 2.05557 3.49072 2.32224C3.31381 2.58891 3.22033 2.90222 3.2222 3.22223V53.1667C3.2222 53.594 3.39194 54.0038 3.69408 54.3059C3.99622 54.608 4.40601 54.7778 4.83331 54.7778H55.0355C55.3555 54.7796 55.6688 54.6862 55.9355 54.5093C56.2022 54.3324 56.4101 54.0801 56.5328 53.7845C56.6556 53.489 56.6875 53.1636 56.6245 52.8498C56.5616 52.536 56.4066 52.2481 56.1794 52.0228V52.0228Z" fill="#EA4638"/>
<path d="M38.6666 48.3333H45.111C45.9656 48.3333 46.7852 47.9938 47.3895 47.3896C47.9937 46.7853 48.3332 45.9657 48.3332 45.1111V14.0167L44.6277 7.20166C44.3411 6.70515 43.9272 6.29409 43.4288 6.01088C42.9303 5.72767 42.3653 5.58257 41.7921 5.59055C41.2059 5.5952 40.6321 5.75969 40.1324 6.0663C39.6328 6.37291 39.2262 6.81002 38.9566 7.33055L35.4443 14.0489V45.1111C35.4443 45.9657 35.7838 46.7853 36.3881 47.3896C36.9924 47.9938 37.812 48.3333 38.6666 48.3333ZM38.6666 14.8222L41.7921 8.74833L45.111 14.8383V38.6667H38.6666V14.8222ZM38.6666 41.2928H45.111V45.2239H38.6666V41.2928Z" fill="#EA4638"/>
</svg>
