<svg width="36" height="35" viewBox="0 0 36 35" fill="none" xmlns="http://www.w3.org/2000/svg">
<path d="M18 0C15.6362 0 13.2956 0.46351 11.1117 1.36407C8.92784 2.26462 6.94353 3.58459 5.27208 5.2486C1.89642 8.60922 0 13.1672 0 17.9198C0 25.8404 5.166 32.5603 12.312 34.9437C13.212 35.087 13.5 34.5315 13.5 34.0477V31.0192C8.514 32.0944 7.452 28.618 7.452 28.618C6.624 26.5393 5.454 25.9838 5.454 25.9838C3.816 24.8727 5.58 24.9086 5.58 24.9086C7.38 25.034 8.334 26.7543 8.334 26.7543C9.9 29.4781 12.546 28.6717 13.572 28.2417C13.734 27.0769 14.202 26.2884 14.706 25.8404C10.71 25.3924 6.516 23.8513 6.516 17.0238C6.516 15.0347 7.2 13.4399 8.37 12.1676C8.19 11.7196 7.56 9.85591 8.55 7.43673C8.55 7.43673 10.062 6.95289 13.5 9.26455C14.922 8.87032 16.47 8.6732 18 8.6732C19.53 8.6732 21.078 8.87032 22.5 9.26455C25.938 6.95289 27.45 7.43673 27.45 7.43673C28.44 9.85591 27.81 11.7196 27.63 12.1676C28.8 13.4399 29.484 15.0347 29.484 17.0238C29.484 23.8692 25.272 25.3745 21.258 25.8225C21.906 26.378 22.5 27.4711 22.5 29.1376V34.0477C22.5 34.5315 22.788 35.1049 23.706 34.9437C30.852 32.5424 36 25.8404 36 17.9198C36 15.5666 35.5344 13.2363 34.6298 11.0622C33.7252 8.88807 32.3994 6.91261 30.7279 5.2486C29.0565 3.58459 27.0722 2.26462 24.8883 1.36407C22.7044 0.46351 20.3638 0 18 0V0Z" fill="#828091"/>
</svg>
