<svg width="87" height="69" viewBox="0 0 87 69" fill="none" xmlns="http://www.w3.org/2000/svg">
<path d="M74.4375 56.2655H12.5625C10.922 56.2638 9.34911 55.6114 8.18909 54.4514C7.02906 53.2914 6.37664 51.7185 6.375 50.078V6.76547C6.37664 5.12495 7.02906 3.55208 8.18909 2.39206C9.34911 1.23203 10.922 0.57961 12.5625 0.577972H74.4375C76.078 0.57961 77.6509 1.23203 78.8109 2.39206C79.9709 3.55208 80.6234 5.12495 80.625 6.76547V50.078C80.6225 51.7182 79.9699 53.2906 78.81 54.4505C77.6502 55.6103 76.0778 56.263 74.4375 56.2655V56.2655ZM12.5625 6.76547V50.078H74.4375V6.76547H12.5625ZM0.1875 62.453H86.8125V68.6405H0.1875V62.453Z" fill="#EA4638"/>
</svg>
