<?xml version="1.0" encoding="UTF-8"?><svg id="Layer_2" xmlns="http://www.w3.org/2000/svg" viewBox="0 0 1473.6763 1316.18209"><defs><style>.cls-1{fill:#f3f0f1;}.cls-2{fill:#f2dddd;}.cls-3{fill:#f9b384;}.cls-4{fill:#ea4638;}.cls-5{fill:#fff;}.cls-6{fill:#ccc;}.cls-7{fill:#d3dfff;}.cls-8{fill:#e29393;}.cls-9{fill:#e28b6d;}.cls-10{fill:#102048;}.cls-11{opacity:.8;}.cls-12{fill:#eb5d60;opacity:.4;}</style></defs><g id="OBJECTS"><g><g><g><path class="cls-2" d="M1431.0092,951.99809c-24.102-54.8208-70.3884-100.5671-125.98812-123.0832-57.9144-23.4533-124.411-14.9153-185.4115-22.771-52.9796-6.8229-91.2044-30.4745-122.8377-72.5244-30.31008-40.2907-57.4866-84.9122-107.0447-103.5487-39.1589-14.7261-83.6786-10.6447-122.598,4.7008-71.7149,28.2765-125.8808,88.3996-171.499,148.2963-41.6498,54.6865-75.6219,114.5687-152.6608,116.5224-77.0879,1.9549-150.477-42.0184-228.0948-30.3665-102.5842,15.3998-188.0154,100.7977-205.9175,202.4644-16.7778,95.2832,25.3236,187.6958,97.653,241.9943H1349.8316c91.1386-96.6856,138.9634-230.2481,81.1776-361.6844Z"/><g><path class="cls-5" d="M307.1572,1313.68249h3.41977c23.75073-26.1051,42.35593-57.7817,54.18263-92.9442,19.143-56.9116,18.3361-116.6382-2.2718-168.1787-10.415-26.0474-25.4541-50.3223-39.99754-73.7988-14.75096-23.8086-30.00246-48.4278-40.35396-74.8096-4.2803-10.9088-7.4421-22.6216-9.3435-34.5706-.857-.1119-1.7153-.2042-2.573-.3083,1.9114,12.3758,5.1622,24.5076,9.5898,35.792,10.4334,26.5942,25.7459,51.311,40.55542,75.2148,14.48728,23.3838,29.46778,47.5659,39.80098,73.4082,20.3882,50.9912,21.178,110.105,2.2242,166.4551-11.9735,35.5977-30.9684,67.5706-55.233,93.7401Z"/><path class="cls-5" d="M1343.8233,1205.25979c25.6158,5.4576,50.3006,10.3531,74.1728,13.432,.4097-.7883,.8067-1.5814,1.2106-2.372-24.0707-3.0597-48.9856-7.9925-74.861-13.5063-39.39942-8.3936-82.04342-17.4805-124.33832-17.4805-26.18658,0-52.2388,3.4839-77.3023,12.771-9.4946,3.5181-18.645,7.981-27.3559,13.2984-22.627-9.6436-45.376-20.1734-67.9126-31.731,16.3525-12.3193,32.8759-24.3823,49.5776-36.0449,123.979-86.5711,238.39632-135.6507,348.93652-149.5809-.2218-.8096-.4541-1.6194-.6833-2.4292-110.8355,14.0436-225.5036,63.248-349.68392,149.9593-17.0556,11.9116-33.9282,24.2383-50.6152,36.8237-25.3442-13.0932-50.3833-27.4829-74.6191-43.3618-43.9551-28.8013-96.2403-69.9121-141.9019-124.5361,176.9482-19.8511,357.10199-44.8633,504.21871-143.1885,5.5871-3.7344,11.7763-8.1367,18.1867-13.1309-.7105-.5042-1.4262-.9998-2.1419-1.4959-6.1438,4.7589-12.0694,8.9615-17.4339,12.5467-147.0801,98.3008-327.56592,123.1201-504.74371,142.9688-32.2656-39.0283-61.0962-84.8706-81.1303-137.9419-31.2085-82.6685-29.5606-163.794,4.5214-222.5757,1.4801-2.5531,3.0428-5.0659,4.6544-7.5536-1.4242,.653-2.8337,1.3311-4.2437,2.0087-.877,1.4206-1.7383,2.849-2.5737,4.29-34.4593,59.436-36.1719,141.3403-4.6973,224.7144,19.92681,52.7832,48.4985,98.4448,80.5029,137.3877-10.2563,1.1474-20.51509,2.2802-30.7422,3.4082-36.8945,4.0722-75.0476,8.2837-112.0935,13.0517-13.5229,1.7407-27.2741,3.772-40.957,6.3159-29.3326-61.9068-61.5532-122.303-103.2043-174.0969-.59509,.5937-1.20209,1.17-1.803,1.7553,41.2944,51.4019,73.3142,111.3463,102.467,172.8202-59.6802,11.3818-117.6318,32.7783-148.5742,82.5805-28.8977,46.5088-28.8721,110.7984,.0781,191.084,1.0007,2.7751,2.0316,5.5135,3.0776,8.2323h2.678c-1.1465-2.9726-2.2857-5.9795-3.4045-9.0819-28.6768-79.5288-28.7793-143.0884-.3052-188.916,30.575-49.209,88.208-70.3198,147.5562-81.565,10.3552,21.9043,20.3576,43.9893,30.3003,65.9375l1.0815,2.3877c34.5265,76.2183,70.2365,149.7744,116.9943,211.2377h3.1195c-47.1821-61.5779-83.0941-135.5742-117.836-212.2679l-1.0815-2.3877c-9.85719-21.7627-19.7766-43.6597-30.0378-65.3809,13.4191-2.4805,26.9055-4.4678,40.1709-6.1743,37.02271-4.7656,75.1623-8.9771,112.0471-13.0469,10.7715-1.1889,21.5674-2.3804,32.373-3.5888,46.0962,55.4785,99.0479,97.1606,143.5059,126.2915,23.9721,15.7055,48.728,29.9609,73.7793,42.9443-42.5269,32.1655-83.8941,66.0083-124.2822,99.0527-13.9858,11.4417-28.1318,23.002-42.3903,34.558h3.9642c13.4489-10.9114,26.8043-21.8218,40.0081-32.6244,40.6738-33.2739,82.334-67.3584,125.16362-99.7143,22.40958,11.5283,45.03168,22.041,67.539,31.6699-30.79342,19.5825-55.88622,49.9072-71.05962,86.7309-1.8997,4.6099-3.5592,9.2652-5.0947,13.9379h2.632c1.45032-4.352,3.0041-8.6891,4.7748-12.9857,15.2148-36.9238,40.52-67.2192,71.5478-86.4893,62.9175,26.7285,124.7534,46.5723,177.8858,62.2925l1.9995,.5908c22.3915,6.6205,45.29232,13.4053,65.54882,24.3032,.5663-.6456,1.1353-1.2889,1.6976-1.9376-20.5861-11.1694-43.82453-18.0473-66.53842-24.763l-1.9995-.5908c-52.5928-15.5616-113.7183-35.1612-175.962-61.4942,8.1104-4.8266,16.5967-8.9038,25.3833-12.1606,64.8633-24.0357,136.792-8.7085,200.24912,4.812Z"/><path class="cls-5" d="M112.876,1043.32129c11.0425,45.1978,6.1157,94.0088-13.5168,133.9209-12.8591,26.143-31.429,49.8093-54.3024,70.1335,.455,.7082,.9204,1.4093,1.3823,2.1129,23.2437-20.5927,42.1101-44.6043,55.1637-71.1429,19.8877-40.4297,24.8816-89.8608,13.7012-135.6177-8.7348-35.7518-26.2949-66.0342-50.5562-87.9444-.5406,.6364-1.0777,1.2754-1.6121,1.9169,23.857,21.5717,41.1337,51.3965,49.7403,86.6208Z"/></g></g><path class="cls-2" d="M678.69709,470.76209c21.7795,22.2549,31.5402,59.7473,19.532,94.3143-11.6272,33.4701-37.1156,61.1941-67.7389,79.017-24.6388,14.34-56.7788,22.2512-81.011,7.2344-18.1082-11.2217-27.49839-33.2378-28.0203-54.5347-.522-21.297,6.6395-42.0518,15.4915-61.429,12.4778-27.3141,29.27141-53.801,54.2883-70.411,34.4845-22.8959,66.5237-15.5827,87.4584,5.809Z"/></g><g><path class="cls-2" d="M390.0064,80.5645H209.6665V0h180.3399V80.5645Zm-176.5899-3.75h172.8399V3.75H213.4165V76.8145Z"/><path class="cls-2" d="M272.6856,157.60789H92.3457V77.0435h180.3399v80.5644Zm-176.5899-3.75h172.8399V80.7935H96.0957v73.0644Z"/></g><g><g><path class="cls-8" d="M1416.104,243.45439c-11.6766-38.8289-32.2159-74.478-61.6173-107.0698-29.4613-32.5917-69.64142-59.4968-120.54002-80.7762-50.8987-21.2795-115.56988-31.91909-194.0138-31.91909-62.5754,0-126.3484,8.4384-191.31908,25.31509-65.03051,16.938-121.43821,41.0302-169.283,72.3379l62.27629,170.9793-33.3772,27.0386,48.4071,14.2261c47.7847-25.0095,91.3182-43.1704,130.6-54.4828,39.22181-11.2512,80.8989-16.8766,125.0909-16.8766,44.1321,0,77.5456,10.6396,100.2405,31.9191,22.6947,21.3406,34.0123,46.9615,34.0123,77.0462,0,36.3218-11.6768,68.5467-34.9106,96.7358-23.3534,28.1891-49.1022,56.684-77.3061,85.4846-19.5809,19.9953-38.62318,40.6633-57.0065,61.9428-18.3833,21.3404-34.671,44.1487-48.743,68.6078-14.13168,24.398-25.4493,50.6915-34.0123,78.8806-8.6227,28.1892-12.8743,59.8025-12.8743,94.8402,0,11.3124,.2394,24.7649,.8982,40.4187,.1104,2.8876,.2621,5.7027,.4345,8.4824h-45.7632l49.9396,33.7707h242.81659c-1.2576-7.521-1.8564-16.2652-1.8564-26.2935v-22.5634c0-21.2795,4.3114-42.2533,12.8745-62.9212,8.5629-20.668,19.3414-40.3575,32.2157-59.1911,12.87442-18.7723,27.2458-36.6275,43.2339-53.5043,15.9284-16.9379,31.2578-32.8975,45.98852-47.9398,19.581-19.9954,39.82068-41.2749,60.6593-63.8384,20.8385-22.5634,39.2818-46.2889,55.21-71.3595,15.9283-25.0705,29.1022-52.2814,39.5213-81.7546,10.4193-29.4121,15.6888-61.637,15.6888-96.7357,0-35.0377-5.8682-71.971-17.4852-110.7999Z"/><path class="cls-4" d="M960.92048,250.29939c-43.6735,0-84.8615,5.4444-123.6231,16.3331-38.8209,10.948-81.8434,28.5239-129.06759,52.7278l-76.399-205.4074c47.28339-30.2992,103.02919-53.6154,167.29669-70.0077,64.2082-16.3332,127.233-24.4998,189.0741-24.4998,77.5234,0,141.4358,10.297,191.73722,30.891,50.30148,20.594,90.01,46.6324,119.12568,78.1743,29.05642,31.542,49.35452,66.0429,60.89432,103.62098,11.4805,37.57812,17.28,73.32172,17.28,107.23082,0,33.9682-5.2077,65.1551-15.5047,93.6198-10.297,28.5239-23.3162,54.8582-39.0576,79.1212-15.74132,24.263-33.96822,47.2242-54.56222,69.0609-20.594,21.8367-40.5962,42.4307-59.94748,61.782-14.55782,14.5578-29.70742,30.0033-45.44882,46.3957-15.8006,16.3331-30.0033,33.6132-42.7266,51.7808-12.7233,18.2269-23.3754,37.2823-31.8379,57.2845-8.4624,20.0022-12.7233,40.3003-12.7233,60.8943v21.8367c0,9.7053,.5918,18.1677,1.83462,25.4467h-239.96741c-2.4855-12.1316-3.965-25.7425-4.5568-40.8921-.6509-15.1497-.8876-28.1688-.8876-39.1168,0-33.9091,4.2016-64.5042,12.7233-91.7853,8.4624-27.2811,19.6471-52.7277,33.6132-76.3398,13.9068-23.6713,30.00331-45.7447,48.171-66.3979,18.1677-20.594,36.98632-40.5962,56.3376-59.9475,27.8729-27.8729,53.3195-55.4499,76.399-82.731,22.9611-27.2812,34.5008-58.468,34.5008-93.6199,0-29.1156-11.1846-53.9113-33.6132-74.5644-22.4285-20.594-55.44988-30.891-99.0642-30.891Z"/></g><g><path class="cls-8" d="M1146.67068,1176.05129c0,43.7777-14.172,77.5574-42.51588,101.3876-28.34382,23.8788-60.37632,35.7696-96.14592,35.7696-35.8182,0-67.8507-11.8908-96.1946-35.7696-28.2953-23.8302-42.4673-57.6099-42.4673-101.3876,0-43.7291,14.1719-77.5088,42.4681-101.3883,43.6299-36.8195,108.17671-45.0241,159.2592-19.1818,45.32752,22.9309,75.5963,69.4979,75.5964,120.5701Z"/><path class="cls-4" d="M1099.17068,1176.05129c0,43.7777-14.172,77.5574-42.51588,101.3876-28.34382,23.8788-60.37632,35.7696-96.14592,35.7696-35.8182,0-67.8507-11.8908-96.1946-35.7696-28.2953-23.8302-42.4673-57.6099-42.4673-101.3876,0-43.7292,14.172-77.5089,42.4673-101.3877,28.3439-23.8302,60.3764-35.7696,96.1946-35.7696,35.7696,0,67.8021,11.9394,96.14592,35.7696,28.34388,23.8788,42.51588,57.6585,42.51588,101.3877Z"/></g></g><g><g><circle class="cls-6" cx="354.6212" cy="550.61159" r="26.14967" transform="translate(-251.89644 797.72629) rotate(-79.38401)"/><ellipse class="cls-6" cx="378.2554" cy="601.81909" rx="14.70795" ry="14.81242" transform="translate(-282.93718 862.75539) rotate(-79.38623)"/><g><circle class="cls-6" cx="290.0925" cy="418.94614" r="102.96113" transform="translate(-211.27353 327.83286) rotate(-45)"/><g><circle class="cls-5" cx="250.5579" cy="418.94609" r="12.9723"/><circle class="cls-5" cx="290.0925" cy="418.94609" r="12.9723"/><circle class="cls-5" cx="329.62711" cy="418.94609" r="12.9723"/></g></g></g><g><g><g><path class="cls-10" d="M216.3349,1261.66769l9.6201,37.0868c2.5088,9.6716,11.8602,16.2074,22.2062,15.5042,31.543-2.144,97.0809-9.8711,134.6957-37.5956l-10.6927-53.4503c-51.71818-2.9219-100.0846-.0449-141.965,14.0535-10.4861,3.53-16.5518,14.0407-13.8643,24.4014Z"/><path class="cls-5" d="M276.6133,1291.18899c-.5469,0-1.0493-.3613-1.2036-.9141l-12.9165-46.25c-.1856-.665,.2031-1.3545,.8677-1.54,.6694-.1836,1.3554,.2031,1.5405,.8681l12.9165,46.25c.1855,.6651-.2031,1.3545-.8677,1.5401-.1128,.0312-.226,.0459-.3369,.0459Z"/><path class="cls-5" d="M304.5298,1284.93899c-.5469,0-1.0493-.3613-1.2036-.9141l-12.9165-46.25c-.1855-.665,.2031-1.3545,.8677-1.54,.6699-.1865,1.3554,.2031,1.5405,.8681l12.9165,46.25c.1856,.6651-.2031,1.3545-.8677,1.5401-.1128,.0312-.226,.0459-.3369,.0459Z"/></g><polygon class="cls-4" points="336.9523 1061.18929 216.7491 1096.86409 306.0177 1219.17759 434.1755 1229.37039 610.94499 1154.62329 543.77259 1053.54469 336.9523 1061.18929"/><path class="cls-4" d="M485.1441,1078.17729c263.9757-78.1447,306.40039,155.157-105.4725,197.627-14.5479-16.3701-31.5486-44.7745-38.3-68.5183l217.50449-100.5122-73.732-28.5965Z"/><path class="cls-3" d="M496.3568,1245.38179c-12.3453-3.9534-24.1758-11.7644-24.1758-11.7644l-42.4247,13.3072,9.7223,46.1507,44.072,8.9549c13.4254-24.5569,14.2088-44.7192,12.8062-56.6484Z"/><path class="cls-8" d="M342.314,1208.90679l-1.8843-3.2422c45.375-26.3711,161.603-89.7237,260.62789-108.4082l.6954,3.6855c-98.4541,18.5762-214.23149,81.6914-259.43899,107.9649Z"/><path class="cls-4" d="M336.9523,1061.18929c-245.7096-46.717-309.3466,189.4161,102.5263,231.8861,14.5479-16.37,25.9509-35.7142,32.7024-59.4579-63.2672-42.3335-134.006-82.5689-211.5342-120.898l76.3055-51.5302Z"/><path class="cls-8" d="M471.1743,1235.19969c-11.6884-7.4394-23.8671-15.3037-36.7612-23.6289-64.727-41.791-138.0898-89.1582-200.4199-116.168l1.4912-3.4414c62.6138,27.1329,136.1143,74.5889,200.9624,116.459,12.8892,8.3223,25.063,16.1826,36.7412,23.6153l-2.0137,3.164Z"/><path class="cls-8" d="M156.6763,1178.26999l-3.2822-1.8125c9.2231-16.6972,23.9956-27.9599,43.9077-33.4736l1.001,3.6133c-19.17,5.3096-32.7862,15.6699-41.6265,31.6728Z"/><path class="cls-8" d="M669.50929,1164.05419c-8.8398-16.0019-22.456-26.3623-41.62649-31.6728l1.001-3.6133c19.91259,5.5146,34.68509,16.7773,43.90769,33.4736l-3.2822,1.8125Z"/><path class="cls-8" d="M416.4702,1291.00149l-2.7412-2.5586c19.6553-21.0508,31.7271-43.2735,36.9053-67.9385l3.6699,.7695c-5.3227,25.3545-17.6987,48.1631-37.834,69.7276Z"/><g><path class="cls-10" d="M618.89959,1231.63539c-31.4805-19.4487-92.5093,14.1567-107.8293,15.8556-4.4665,.4952-9.6333-.4824-14.7135-2.1092,1.4026,11.9292,.6192,32.0915-12.8062,56.6484l7.4858,1.521s51.752,18.9704,106.651,7.9278c50.6738-10.1927,45.96-64.5544,21.2122-79.8436Z"/><path class="cls-5" d="M575.98929,1295.25149c-.125,0-.25149-.0186-.377-.0576-.6582-.208-1.0234-.9102-.8154-1.5684,3.7398-11.8428,5.3716-35.1406-5.4609-50.7871-.3931-.5684-.2515-1.3467,.3164-1.7393,.5659-.3945,1.3457-.2529,1.7392,.3155,11.3438,16.3857,9.6773,40.6513,5.7891,52.9629-.1685,.5332-.6606,.874-1.1914,.874Z"/><path class="cls-5" d="M551.3018,1299.93899c-.125,0-.25151-.0186-.377-.0576-.65821-.208-1.02341-.9102-.81541-1.5684,3.7398-11.8428,5.3716-35.1406-5.4609-50.7871-.3931-.5684-.2515-1.3467,.3164-1.7393,.5664-.3935,1.3452-.2529,1.7392,.3155,11.3438,16.3857,9.6773,40.6513,5.7891,52.9629-.1685,.5332-.6606,.874-1.19139,.874Z"/></g></g><g><g><path class="cls-3" d="M293.4823,756.72599s61.8815-52.6201,59.5898-62.6201c-1.6377-7.1463-19.1666,3.3334-19.1666,3.3334,0,0,24.5833-29.1667,23.3333-32.7084-2.2338-6.3291-19.2356,5.4681-19.2356,5.4681,0,0,11.4916-16.5408,5.9976-19.2358-5.494-2.6951-17.47186,7.4982-17.47186,7.4982,0,0,6.99766-9.1835,3.70956-11.5934-3.28818-2.4098-17.47189,7.4982-17.47189,7.4982,0,0,5.08988-11.5802-5.72341-7.1901-10.8133,4.3901-86.6334,73.9695-86.6334,73.9695l73.0725,35.5804Z"/><g><path class="cls-9" d="M318.80081,694.31399c-.30078,0-.60303-.1084-.84277-.3272-10.62154-9.705-15.30514-12.0605-27.02444-15.666-.6596-.2021-1.0302-.9023-.8271-1.5615,.2031-.6602,.9018-1.0322,1.5625-.8272,12.1416,3.7344,16.9912,6.1729,27.97556,16.209,.50976,.4658,.54541,1.2569,.07959,1.7657-.24658,.2705-.58447,.4072-.92334,.4072Z"/><path class="cls-9" d="M300.1568,722.85599c-.0576,0-.1158-.0039-.1743-.0117-.6841-.0958-1.1607-.7276-1.065-1.4112,1.2158-8.7012,3.9551-14.1387,8.374-16.623,3.77738-2.125,8.69242-1.9063,14.60941,.6484,.63379,.2734,.92578,1.0088,.65185,1.6426-.27343,.6338-1.00878,.9277-1.64306,.6523-5.16113-2.2285-9.33008-2.4863-12.3931-.7636-3.6411,2.0468-6.0381,7.0234-7.1235,14.789-.0874,.625-.6226,1.0772-1.2363,1.0772Z"/><path class="cls-9" d="M297.2388,670.25149c-.332,0-.6636-.1319-.9097-.3926-.4736-.5029-.4502-1.2939,.0523-1.7666l15.52781-14.6348c.50244-.4756,1.29297-.4502,1.76709,.0518,.47363,.5029,.4502,1.2939-.05225,1.7666l-15.52785,14.6348c-.2417,.2285-.5498,.3408-.8574,.3408Z"/><path class="cls-9" d="M311.6138,675.25149c-.31152,0-.62305-.1153-.86572-.3487-.49805-.4775-.51416-1.2685-.03614-1.7666l14.91504-15.54c.47803-.5,1.26905-.5156,1.76758-.0361,.49805,.4775,.51416,1.2685,.03613,1.7666l-14.91503,15.54c-.24561,.2559-.57374,.3848-.90186,.3848Z"/><path class="cls-9" d="M326.30081,684.00149c-.30517,0-.61084-.1113-.85205-.336-.50488-.4707-.53271-1.2617-.06201-1.7666l11.70165-12.5527c.4717-.5029,1.2612-.5322,1.7671-.0615,.5049,.4707,.5327,1.2617,.062,1.7666l-11.70165,12.5527c-.24658,.2637-.58008,.3975-.91504,.3975Z"/></g></g><g><path class="cls-6" d="M527.2388,1108.68249l-226.25,8.75-25-206.25s75.7432-71.8417,104.8836-98.2981l49.1951-2.5229c152.6311,69.3778,127.6382,156.0283,97.1713,298.321Z"/><path class="cls-6" d="M430.0675,810.36149s174.6209,14.9334,229.6713,134.571c53.86679,117.0654-167.5,158.75-167.5,158.75l-62.1713-293.321Z"/><path class="cls-6" d="M230.4645,835.99839l72.1595-87.8123-67.4784-40.8945c-28.1482,19.5716-82.5796,63.902-128.7086,114.1017-10.182,11.0806-18.1352,24.0233-22.1406,38.2736-3.4181,12.1607-4.0394,24.1719-2.118,35.9344v.0002c5.0073,30.6551,29.1207,54.3119,61.3104,58.081,27.4907,3.2189,132.5-5,217.5-30l25-96.4895c-12.8475-7.2899-108.3244-8.5554-155.5243,8.8054Z"/></g><g class="cls-11"><path class="cls-1" d="M575.79349,857.83959c.3757-.0863,.7532-.1725,1.1291-.259-.7885-.4674-1.5811-.9212-2.3721-1.3796-12.7972,2.9462-26.001,5.9567-39.0158,7.5273-7.8223,.9424-33.9563,2.6685-41.5942-14.7436-3.8001-8.6628-.9244-18.297,3.3737-25.0592-.6285-.1824-1.2494-.3583-1.8729-.5359-4.4012,7.1626-7.2256,17.2128-3.2171,26.347,8.1542,18.5987,35.3869,16.836,43.5351,15.8521,13.3911-1.6138,26.936-4.7315,40.0342-7.7491Z"/><path class="cls-1" d="M657.28639,992.77129c-8.3423-3.2227-16.9604-6.5552-26.0205-5.7007-15.8923,1.5015-29.4922,17.2168-30.3162,35.0317-.563,12.1466,4.0772,24.8768,12.9239,36.0743,.5329-.3333,1.064-.6678,1.5927-1.005-8.6493-10.8801-13.1883-23.2316-12.644-34.9814,.7837-16.9189,13.6218-31.8359,28.6194-33.2544,8.6145-.7983,16.6553,2.295,25.1684,5.5835,3.0391,1.1744,6.1281,2.3574,9.2672,3.3629,.162-.6042,.3193-1.2103,.465-1.8205-3.059-.9839-6.08149-2.1414-9.0559-3.2904Z"/><path class="cls-1" d="M216.5381,933.13989c-10.9021-9.0161-27.8418-11.4257-46.4673-6.6113-16.5994,4.2937-30.8412,12.7982-40.625,24.0534,.6432,.2075,1.2712,.4422,1.9234,.6324,9.5192-10.6768,23.2297-18.7471,39.1704-22.8694,18.0346-4.6679,34.3689-2.3877,44.8047,6.2403,4.9604,4.1008,8.4672,9.4258,11.0161,15.1728,.6437-.0732,1.2905-.148,1.9383-.223-2.6686-6.182-6.388-11.9527-11.7606-16.3952Z"/><path class="cls-1" d="M117.9821,809.13119c20.4281-5.0759,40.3624-12.2052,58.7477-22.7955,6.947-4.0014,14.7924-9.104,20.3088-16.5942,5.8691-7.9712,7.8186-17.4609,5.2173-25.3833-1.0207-3.1067-2.8281-5.8356-5.0873-8.0232-.4784,.3914-.9605,.7873-1.4424,1.1835,2.1092,2.0069,3.7991,4.5372,4.7475,7.4256,2.4133,7.3462,.5651,16.2012-4.9439,23.6841-5.3113,7.2119-12.9565,12.1778-19.7351,16.0816-17.3422,9.99-36.0998,16.8992-55.3683,21.8898-.817,.841-1.6306,1.6859-2.4443,2.5316Z"/></g><g><path class="cls-3" d="M446.0487,764.50689l-.0317,3.2013-.507,49.7302-.0635,5.388c-.095,8.4311-3.5499,16.0697-9.1283,21.6164-5.5467,5.5149-13.1852,8.9698-21.648,9.0333-17.052,.095-30.9981-13.5975-31.1565-30.6812l-.6023-61.4575,63.1373,3.1695Z"/><path class="cls-10" d="M446.017,767.70819l-.507,49.7302c-27.6386-11.2521-39.0171-41.1726-39.0171-41.1726l39.5241-8.5576Z"/><path class="cls-3" d="M456.952,680.92599c9.9048,11.8858,38.8269,79.2386,9.5086,102.2178-32.9917,25.8584-83.2006-16.6401-83.2006-16.6401l-6.7352-78.4462,43.5812-11.4896,36.846,4.3581Z"/><path class="cls-10" d="M354.3221,676.60589s-96.6666,50.4167-17.8471,195.7469c10.1234,18.6659,32.5464,26.8138,51.7283,17.7058h.0001c20.5768-9.7703,28.3681-34.9079,17.1945-54.7576-12.8931-22.9044-25.3368-52.3972-20.0248-74.344l-31.051-84.3511Z"/><circle class="cls-4" cx="363.45037" cy="700.47152" r="26.14879" transform="translate(-388.85601 462.16158) rotate(-45)"/><path class="cls-10" d="M395.6185,731.89019c-2.8253-16.3142-4.5468-27.5012,11.9414-35.9089,0,0,58.1083,10.5652,69.2018-11.3575,11.0934-21.9227-5.8109-56.5235-41.2041-32.4879-90.5962-17.6966-102.7462,67.0888-75.2768,95.3506l27.1125-4.1612c5.4555-.8373,9.167-5.9967,8.2252-11.4351Z"/><g><circle class="cls-10" cx="440.609" cy="731.93589" r="3.8629"/><circle class="cls-10" cx="466.7578" cy="719.05959" r="3.8629"/><path class="cls-10" d="M464.0835,743.82569c-.2705,0-.5415-.0996-.7534-.3008-.438-.416-.4556-1.1084-.0395-1.5459,1.5493-1.6308,3.2465-3.9238,2.5332-5.5859-.7408-1.7256-3.8721-2.4717-5.3062-2.4717-3.082,0-4.5615-5.4834-4.8267-6.582-.1416-.5869,.2188-1.1778,.8057-1.3194,.5864-.1455,1.1777,.2178,1.3203,.8057,.5625,2.3164,1.8369,4.9082,2.7007,4.9082,1.4751,0,5.9858,.6973,7.3159,3.7959,.9502,2.2129-.0449,4.8896-2.957,7.9551-.2148,.2265-.5039,.3408-.793,.3408Z"/><path class="cls-10" d="M464.2808,758.48489c-.2105,0-.4233-.0606-.6108-.1875-7.2735-4.9082-14.6172-.792-14.691-.75-.5219,.3008-1.1914,.122-1.4936-.4033-.3008-.5235-.1206-1.1924,.4028-1.4932,.3482-.2002,8.6128-4.8311,17.0054,.834,.5005,.3379,.6328,1.0176,.2949,1.5185-.2114,.3125-.5566,.4815-.9077,.4815Z"/><path class="cls-10" d="M438.9172,715.20499c2.1979,4.1359-1.6322,4.966-6.1189,7.3504s-9.0805,3.257-10.1289,1.2843c-1.0484-1.9727,1.7389-5.5049,6.2256-7.8893s8.3208-3.9468,10.0222-.7454Z"/><path class="cls-10" d="M455.2803,707.73919c.9658,3.6918,3.7193,2.0751,7.7242,1.0274s7.2396-3.0605,6.7789-4.8214c-.4606-1.7609-4.0807-2.339-8.0856-1.2914-4.005,1.0477-7.1651,2.2277-6.4175,5.0854Z"/></g><circle class="cls-12" cx="422.78032" cy="749.96267" r="11.39051" transform="translate(-396.45435 485.30863) rotate(-42.68545)"/><ellipse class="cls-3" cx="379.52367" cy="750.00399" rx="15.42662" ry="17.5303" transform="translate(-446.10305 592.2551) rotate(-52.34239)"/><path class="cls-10" d="M386.3013,755.72019c-.604,0-1.0937-.4892-1.0937-1.0937,0-3.2285-1.5738-6.2139-4.21-7.9854-2.2544-1.5166-4.9424-1.872-7.1885-.957-.5605,.2246-1.1977-.04-1.4258-.5996-.228-.5596,.0401-1.1973,.5996-1.4258,2.9214-1.1914,6.3741-.7568,9.2349,1.167,3.2417,2.1777,5.1773,5.8418,5.1773,9.8008,0,.6045-.4898,1.0937-1.0938,1.0937Z"/></g><g><rect class="cls-10" x="181.65431" y="856.09357" width="58.14459" height="2.50034" transform="translate(-561.86664 430.09244) rotate(-47.248)"/><path class="cls-10" d="M507.6031,1018.63429l-.7286-2.3906c28.7334-8.7569,56.6177-19.2344,81.8882-50.835l1.9522,1.5606c-25.7163,32.1601-53.9878,42.79-83.1118,51.665Z"/></g></g><g><path class="cls-7" d="M525.07319,921.82249h-244.41879c-8.79,0-15.9156,7.7088-15.9156,17.2182v174.5069c0,9.5094,7.1256,17.2182,15.9156,17.2182h244.41879c8.79,0,15.91561-7.7088,15.91561-17.2182v-174.5069c0-9.5094-7.12561-17.2182-15.91561-17.2182Z"/><path class="cls-4" d="M415.7668,1015.26399c.928,0,1.6804,.8139,1.6804,1.8179v18.4245c0,1.0041-.7524,1.818-1.6804,1.818h-25.806c-.928,0-1.6804-.8139-1.6804-1.818v-18.4245c0-1.004,.7524-1.8179,1.6804-1.8179h25.806m0-5h-25.806c-3.6835,0-6.6804,3.0584-6.6804,6.8179v18.4245c0,3.7595,2.9969,6.818,6.6804,6.818h25.806c3.6835,0,6.6804-3.0585,6.6804-6.818v-18.4245c0-3.7595-2.9969-6.8179-6.6804-6.8179h0Z"/></g></g></g><rect class="cls-10" y="1311.18209" width="1473.6763" height="5"/></g></g></svg>